<?xml version="1.0" encoding="UTF-8" standalone="no"?>
<!-- Created with Inkscape (http://www.inkscape.org/) -->

<svg
   xmlns:dc="http://purl.org/dc/elements/1.1/"
   xmlns:cc="http://creativecommons.org/ns#"
   xmlns:rdf="http://www.w3.org/1999/02/22-rdf-syntax-ns#"
   xmlns:svg="http://www.w3.org/2000/svg"
   xmlns="http://www.w3.org/2000/svg"
   xmlns:sodipodi="http://sodipodi.sourceforge.net/DTD/sodipodi-0.dtd"
   xmlns:inkscape="http://www.inkscape.org/namespaces/inkscape"
   width="8.4666662mm"
   height="8.4666662mm"
   viewBox="0 0 29.999998 29.999998"
   id="svg6512"
   version="1.1"
   inkscape:version="0.91 r13725"
   sodipodi:docname="icon-international.svg">
  <defs
     id="defs6514" />
  <sodipodi:namedview
     id="base"
     pagecolor="#ffffff"
     bordercolor="#666666"
     borderopacity="1.0"
     inkscape:pageopacity="0.0"
     inkscape:pageshadow="2"
     inkscape:zoom="3.959798"
     inkscape:cx="-27.084182"
     inkscape:cy="26.163612"
     inkscape:document-units="px"
     inkscape:current-layer="layer1"
     showgrid="false"
     fit-margin-top="0"
     fit-margin-left="0"
     fit-margin-right="0"
     fit-margin-bottom="0"
     inkscape:window-width="1920"
     inkscape:window-height="1138"
     inkscape:window-x="-8"
     inkscape:window-y="-8"
     inkscape:window-maximized="1" />
  <metadata
     id="metadata6517">
    <rdf:RDF>
      <cc:Work
         rdf:about="">
        <dc:format>image/svg+xml</dc:format>
        <dc:type
           rdf:resource="http://purl.org/dc/dcmitype/StillImage" />
        <dc:title></dc:title>
      </cc:Work>
    </rdf:RDF>
  </metadata>
  <g
     inkscape:label="Layer 1"
     inkscape:groupmode="layer"
     id="layer1"
     transform="translate(-165.95336,-579.26599)">
    <path
       style="fill:#e5485d;fill-opacity:1;fill-rule:nonzero;stroke:none"
       d="m 180.92857,608.31018 c -0.14345,0 -0.28685,-0.0483 -0.4303,-0.0483 0,-0.0483 0,-0.0952 0,-0.19171 -0.047,-0.0952 -0.0952,-0.14345 -0.14345,-0.19171 -0.1917,-0.19037 -0.33511,-0.38203 -0.43029,-0.62201 -0.14345,-0.47857 -0.14345,-1.10059 0,-1.57782 0,-0.0483 0,-0.0483 0,-0.0483 0.0483,0 0.0483,-0.0483 0.0483,-0.0483 0.0471,-0.14345 0.0952,-0.23863 0.19037,-0.38204 0.19171,-0.33515 0.43169,-0.62201 0.67028,-0.86197 l 0.23997,-0.28689 c 0,0 0.0471,-0.0952 0.0471,-0.0952 0.19171,-0.23997 0.38342,-0.43162 0.67027,-0.52683 0.0952,-0.0483 0.14345,-0.0952 0.19171,-0.19171 0.0952,-0.0952 0.14345,-0.19171 0.14345,-0.28685 0.0471,-0.0483 0.0471,-0.14345 0.0952,-0.19171 0.0965,-0.47857 0.19171,-0.71719 0.38341,-0.76545 0.0952,-0.0483 0.14345,-0.0952 0.23864,-0.14344 l 0.28685,-0.33511 c 0.19171,-0.19171 0.33515,-0.38204 0.52684,-0.57375 0,0 0,0 0,0 0.0482,-0.0952 0.0952,-0.19171 0.0952,-0.2869 0,-0.0965 0,-0.23997 0,-0.38342 0,-0.28685 0,-0.5255 0.0965,-0.71718 0,-0.14345 0.14345,-0.33516 0.28691,-0.47859 0.28684,-0.33511 0.76545,-0.90887 0.38204,-1.62742 0,-0.0471 -0.0471,-0.0952 -0.0952,-0.14343 -0.47858,-0.38205 -1.05233,-0.57376 -1.62742,-0.76545 -0.47723,-0.14346 -0.86063,-0.28691 -1.19576,-0.47859 -0.14346,-0.62201 -0.4303,-1.48263 -1.5309,-1.43437 -0.14346,-0.14478 -0.28691,-0.28823 -0.38343,-0.38342 -0.0952,-0.0483 -0.19037,-0.14345 -0.19037,-0.19171 0,-0.23863 -0.14345,-0.4303 -0.38342,-0.47857 -0.14345,-0.0471 -0.28689,0 -0.38204,0.0965 -0.0483,-0.0483 -0.0965,-0.0483 -0.19171,-0.0483 -0.14344,0 -0.38341,-0.0482 -0.52682,-0.0482 -0.0952,-0.0471 -0.19171,-0.14344 -0.23864,-0.14344 -0.0965,-0.14345 -0.28691,-0.23865 -0.4303,-0.19171 -0.14478,-0.0471 -0.23997,-0.0471 -0.33515,0 -0.43163,0.19171 -0.81371,0.3834 -1.10059,0.67027 -0.19171,-0.0483 -0.4303,-0.0483 -0.67027,0 0,-0.0952 0.0483,-0.23863 0.0952,-0.47858 l 0.0483,-0.3351 c 0,-0.0952 0,-0.23865 -0.0952,-0.33517 -0.19171,-0.28685 -0.52685,-0.28685 -0.67028,-0.28685 0.0952,-0.19037 0.23864,-0.43028 0.2869,-0.66893 0.0483,-0.14344 0.0483,-0.28821 -0.0483,-0.43167 -0.0952,-0.0952 -0.23864,-0.19038 -0.38204,-0.19038 l -0.67027,0 c -0.14346,0 -0.28691,0.0952 -0.38205,0.23864 -0.0482,0.0952 -0.0965,0.19172 -0.14345,0.28689 0,0.0483 -0.0483,0.0965 -0.0483,0.0965 -0.0952,0.0471 -0.19169,0.0471 -0.23995,0.0471 -0.14345,-0.19037 -0.14345,-0.47858 -0.0471,-0.71718 0.0471,-0.33516 0.28685,-0.67029 0.62202,-0.71719 0,0 0.047,0 0.14343,0.0471 0.19171,0.0483 0.57376,0.0965 0.90889,-0.0952 0.0483,-0.0483 0.0483,-0.0483 0.0952,-0.0965 0.14345,0 0.19171,0 0.23997,0.0483 0.0483,0.67028 0.4303,0.95714 0.67027,1.05233 0.23863,0.0965 0.52549,0 0.62201,-0.23864 0.19037,-0.38343 0.14345,-0.90889 0.0471,-1.33921 0.0965,-0.0965 0.28689,-0.19171 0.47857,-0.33516 0.33515,-0.14344 0.86197,-0.43167 0.90889,-1.0054 0.14344,-0.0952 0.23995,-0.19172 0.33515,-0.28685 0.19171,-0.19172 0.38342,-0.33515 0.57509,-0.4303 0.14345,-0.0483 0.23864,-0.1917 0.28685,-0.28685 0.0471,-0.33515 0.23864,-0.5751 0.47857,-0.67028 0.23865,-0.14343 0.5255,-0.23995 0.81237,-0.33514 0.14345,-0.0483 0.19171,-0.0952 0.28823,-0.19172 0,-0.0471 0.0952,-0.0952 0.14345,-0.19038 0.23863,0 0.4303,-0.0965 0.57375,-0.1917 0.0952,-0.0483 0.14344,-0.0483 0.23863,-0.0965 0.0483,0 0.14346,-0.0952 0.19172,-0.0952 0,-0.0483 0.0965,-0.0952 0.0965,-0.0952 0,-0.0483 0.0471,-0.0483 0.0471,-0.0965 0.0965,-0.19171 0.23997,-0.33515 0.38342,-0.47858 0.1917,-0.0952 0.23863,-0.28685 0.1917,-0.47857 0,-0.14345 -0.1917,-0.33378 -0.33515,-0.38204 -0.0483,0 -0.0483,-0.19171 -0.0965,-0.23997 0,-0.19037 -0.0471,-0.38203 -0.0952,-0.57375 0.0483,-0.0483 0.14345,-0.0952 0.19171,-0.14344 0.047,-0.0483 0.0952,-0.14345 0.0952,-0.19171 0.0483,-0.0483 0.0483,-0.0952 0.0483,-0.14345 0,0 0.047,0 0.047,0 0.23996,-0.0952 0.62201,-0.23865 0.76679,-0.71719 0,-0.14346 0,-0.28685 -0.0965,-0.38337 -0.0483,-0.0952 -0.19171,-0.19171 -0.33516,-0.19171 0,0 0,0 -0.0471,0 0,-0.0952 0.0471,-0.14345 0,-0.19033 0,-0.14345 -0.0965,-0.33515 -0.23997,-0.43167 -0.14345,-0.047 -0.23863,-0.0952 -0.38204,-0.14345 -0.0483,0 -0.1917,-0.0471 -0.1917,0 0,-0.23865 -0.23997,-0.4303 -0.47857,-0.4303 -0.0952,0 -0.14346,0 -0.23997,0 l -0.33379,0 c -0.28823,0 -0.57509,0 -0.86197,0 -0.0952,0 -0.14345,-0.0483 -0.19171,-0.0483 0.43169,-0.0471 0.91023,-0.0952 1.38747,-0.0952 0.67027,0 1.29229,0.0483 1.9143,0.14345 l 0,0.0483 c 0,0.19171 0.14344,0.4303 0.38337,0.4303 0.0952,0.0483 0.14344,0.0483 0.23863,0.0483 0.0483,0.23863 0,0.28689 -0.0952,0.33515 -0.0965,0.14345 -0.14345,0.23864 -0.0965,0.38204 -0.14345,0.14345 -0.23863,0.2869 -0.19037,0.52683 0,1.24403 0.62202,1.67434 1.14751,1.81778 0.0483,0 0.0965,0 0.14345,0 0.0483,0 0.14344,0 0.1917,-0.0483 0.38342,-0.19037 0.62201,-0.47857 0.86197,-0.76545 0.0952,-0.0952 0.19038,-0.23863 0.2869,-0.33515 0.33511,-0.0952 0.66893,-0.19033 1.00407,-0.33378 0.23997,-0.0483 0.43166,-0.14478 0.62201,-0.19171 0.0483,0 0.0483,0.0471 0.0965,0.0471 0,0.0965 0,0.19171 0.0471,0.28823 0,0 0.0483,0.0471 0.0483,0.0952 0.14345,0.28685 0.28689,0.47856 0.57375,0.52682 0,0 0.0483,0 0.0965,0 l 0.0471,0 0.0965,0 c 0.14345,-0.0483 0.28685,-0.0483 0.4303,-0.0965 0.1917,0.14345 0.33515,0.28685 0.52684,0.38337 0.0952,0.0952 0.19037,0.14345 0.28684,0.14345 0,0 0.0483,-0.0483 0.0483,-0.0483 0,0.0483 0,0.0965 0,0.0965 0,0.14345 0,0.19038 0,0.2869 -0.0483,0 -0.0483,0.0471 -0.0965,0.0471 -0.0483,0 -0.0952,0.0482 -0.0952,0.0482 -0.14345,0 -0.23997,0.0483 -0.33511,0.19172 -0.0952,0.0952 -0.14345,0.23863 -0.0952,0.38202 0,0 0,0.0483 0,0.0483 0,0 0,0 0,0 -0.14478,0.14345 -0.23997,0.28685 -0.19171,0.4303 0,0.19171 0.0952,0.33517 0.23864,0.38343 0.14344,0.0952 0.28685,0.14345 0.43029,0.14345 0.0965,0 0.19171,-0.0483 0.23997,-0.0483 0,0 0,0 0,0.0483 0.0483,0 0.0483,0.0483 0.0952,0.0952 0,0.0483 0,0.0965 0,0.14345 0.0965,0.23997 0.23997,0.38337 0.38337,0.47857 -0.33511,-0.0471 -0.67027,-0.0952 -1.10059,0.14345 -0.1917,0.14478 -0.28689,0.38341 -0.1917,0.62201 0.0965,0.0965 0.0965,0.19171 0,0.38341 -0.0483,0.19171 -0.14345,0.52684 0,0.90889 0.0483,0.14345 0.14344,0.23997 0.23996,0.2869 -0.1917,0.14344 -0.52683,0.38341 -0.57509,0.90889 -0.62201,0.38341 -0.95715,1.00541 -1.24403,1.57916 -0.0471,0.0965 -0.14343,0.23996 -0.19037,0.38341 -0.14477,0.19171 -0.0965,0.47857 0.0952,0.62201 0.0952,0.0483 0.0952,0.14345 0,0.52549 -0.0952,0.33517 -0.19171,0.71853 -0.0483,1.14885 0,0.0952 0.0483,0.14345 0.0965,0.19171 0.23863,0.19171 0.38204,0.4303 0.57375,0.62201 0.33511,0.4303 0.67028,0.86063 1.19577,1.19576 0.0965,0.0483 0.19171,0.0483 0.28685,0.0483 0.38342,-0.0483 0.67027,-0.0952 0.95714,-0.19171 l 0.23998,0 c 0.047,0 0.0952,-0.0483 0.19037,-0.0952 0.23997,-0.14343 0.5751,-0.19169 0.86198,-0.14343 0,0 0,0 0,0 0.0483,0 0.0483,0 0.0483,0 0.19037,0.0471 0.33377,0.14343 0.47857,0.23863 0,0 0,0.0483 0.047,0.0483 0,0 0,0 0,0.0483 l 0.0965,0.0471 c 0,0.0483 0,0.0483 0,0.0483 0.0471,0.0483 0.0471,0.0483 0.0471,0.0483 0.0965,0.23859 0.19171,0.47857 0.14345,0.71719 0,0.0483 0,0.0952 0.0483,0.0952 l 0,0 c 0.0483,0.28823 0.0952,0.57509 0.19169,0.81371 0.0483,0.14345 0.0952,0.23997 0.14346,0.38342 0.0483,0.14345 0.0952,0.33515 0.0952,0.52549 0.0483,0.0965 0.0483,0.23997 0.0483,0.38337 0,0.0483 -0.0483,0.0952 -0.0483,0.14345 0,0.14344 0,0.28689 -0.0471,0.47857 0,0.14345 -0.0965,0.28685 -0.23997,0.4303 -0.0483,0.0483 -0.0952,0.14344 -0.0952,0.23996 0,0 0,0.0471 0,0.0952 0,0.14345 0.0471,0.23864 0.0952,0.33516 0.0965,0.0952 0.19171,0.23865 0.23997,0.4303 0.0471,0.0952 0.0952,0.14345 0.19039,0.19171 -2.43979,4.21065 -6.93731,7.03383 -12.15336,7.03383 z m -5.16645,-11.43616 c -0.0965,-0.0952 -0.0965,-0.19172 0.19039,-0.62202 0.23995,-0.33511 0.57509,-0.81371 0.43166,-1.43572 0.14346,-0.19038 0.28691,-0.33511 0.47858,-0.4303 0.14345,0.0483 0.33378,0.0483 0.47857,0 0.0471,0.0483 0.0471,0.0952 0.14345,0.14345 0.14345,0.0965 0.33379,0.0965 0.47858,0.0483 0,-0.0483 0.23864,-0.0483 0.4303,0 0.14345,0 0.23864,0.0483 0.2869,0.0483 0.14345,0.14345 0.23863,0.23863 0.38204,0.33378 0.0965,0.14346 0.23996,0.23997 0.33515,0.38341 0.0965,0.19171 0.28685,0.28685 0.52683,0.23865 0.4303,-0.0471 0.57376,-0.0471 0.81371,0.86196 0,0.0952 0.0471,0.19172 0.14345,0.23863 0.47858,0.38339 1.05233,0.5751 1.57916,0.76545 0.47858,0.14346 0.90889,0.28823 1.24403,0.52684 0,0.0952 -0.0483,0.19171 -0.28823,0.47857 -0.19037,0.23864 -0.4303,0.47858 -0.5255,0.81371 -0.0965,0.33516 -0.0965,0.71719 -0.0965,1.00407 l 0,0.19171 c -0.0952,0.14345 -0.23863,0.2869 -0.38205,0.38342 l -0.19169,0.23863 c -0.67029,0.23864 -0.81371,0.90889 -0.95716,1.48264 0,0.0483 0,0.0483 0,0.0483 -0.38203,0.19171 -0.71719,0.47857 -0.90889,0.81371 l -0.23863,0.2869 c -0.2869,0.28685 -0.52683,0.62201 -0.76545,1.00541 -0.0965,0.0952 -0.14345,0.19037 -0.19171,0.33377 -0.14345,0.0965 -0.19171,0.28823 -0.19171,0.43162 -0.14345,0.57376 -0.14345,1.1006 -0.0483,1.67436 0,0 -0.0471,0 -0.0471,-0.0483 -0.0483,-0.0471 -0.0965,-0.0952 -0.14345,-0.14346 0,0 0,0 0,-0.0471 0,-0.0483 0.0471,-0.0965 0.0471,-0.14478 -0.0471,-0.0471 -0.0471,-0.14345 -0.0952,-0.28685 0.0483,-0.0471 0.0483,-0.0952 0.0483,-0.19038 0.0471,-0.28823 -0.0483,-0.47857 -0.0965,-0.57509 0.0483,-0.19171 0,-0.33515 -0.0952,-0.47858 -0.0965,-0.0471 -0.19171,-0.0952 -0.2869,-0.14345 -0.0483,-0.19171 0,-0.38204 0,-0.67027 0,-0.33378 0,-0.62201 -0.0483,-0.95581 0,-0.14345 -0.0483,-0.28823 -0.0483,-0.38342 -0.0471,-0.23863 -0.0471,-0.43029 -0.0471,-0.622 0.0952,-1.14884 0,-2.5363 -1.48398,-3.15831 -0.23863,-0.66894 -0.57375,-1.24403 -0.95714,-1.81779 0.0483,-0.0483 0.0965,-0.0952 0.14345,-0.14344 0.0483,-0.19171 0.0483,-0.33516 -0.0471,-0.47859 z m -8.8516,-2.63149 c 0,-2.39287 0.62201,-4.64096 1.67434,-6.65043 l 0,0.0471 c 0,0.38342 0.0471,0.76545 0.0471,1.19711 0,0.14345 0,0.23859 0.0965,0.33511 0.14345,0.14345 0.28685,0.33378 0.4303,0.5255 0.0483,0.0965 0.14345,0.14344 0.19171,0.23996 0.0483,0.0952 0.0952,0.14345 0.1917,0.19038 0.0952,0.38337 0.33378,0.67027 0.52549,0.95715 0.19171,0.28685 0.33511,0.47857 0.33511,0.71853 -0.0483,0.047 0,0.19033 0.0483,0.23859 l 0.0471,0.14345 c 0.0483,0.0965 0.0965,0.14345 0.0965,0.23997 0.0483,0.0952 0.0952,0.19037 0.19171,0.28685 l 0.14346,0.0952 c 0.4303,0.28689 0.95714,0.67027 1.62607,0.57375 0.23996,0.23996 0.5751,0.38341 0.81371,0.47858 0.43029,0.14345 0.43029,0.19171 0.43029,0.3351 0,0.19172 0.0965,0.38341 0.23997,0.47858 0.23864,0.0965 0.47857,0.23997 0.71719,0.38341 0.0952,0.0471 0.23997,0.14345 0.38342,0.23864 0.0471,0 0.0952,0.0483 0.14345,0.0483 0.0471,0 0.0952,0 0.0952,0 -0.0483,0.0952 -0.14344,0.23863 -0.23863,0.4303 -0.19171,0.28685 -0.47857,0.76545 -0.33516,1.24402 -0.0483,0.0965 -0.0965,0.14344 -0.0965,0.1917 -0.14344,0.19171 -0.14344,0.38204 0,0.57375 0.43168,0.62202 0.86197,1.29229 1.1006,2.05774 0.0483,0.14345 0.14344,0.23864 0.28822,0.2869 0.90888,0.28685 1.14751,0.90889 1.05234,2.24943 0,0.33511 0,0.57375 0.0471,0.86063 0.0483,0.0965 0.0483,0.1917 0.0483,0.33515 0.0483,0.28685 0.0483,0.57375 0.0483,0.81371 -0.0483,0.62201 -0.0483,1.24402 0.33511,1.76951 0,0.0965 0,0.19171 0,0.23997 0,0.0483 0.0471,0.0952 0.0471,0.0952 -0.0952,0.14345 -0.0952,0.28685 0,0.38337 0,0.0952 0.0483,0.0952 0.0483,0.14345 0.0483,0.23863 0.19171,0.4303 0.23997,0.52683 0.0952,0.0952 0.0952,0.14344 0.0952,0.14344 0,0.14345 0.0483,0.23865 0.14345,0.33378 -6.41182,-1.29094 -11.29139,-6.9373 -11.29139,-13.77943 z m 11.53001,-13.73252 c -0.0471,0.0483 -0.0952,0.0483 -0.14345,0.0965 0,0.0471 0,0.0952 -0.0471,0.14345 -0.0483,0 -0.0965,0 -0.14344,0 l 0.19033,0.47858 -0.28685,-0.43167 c -0.0952,0 -0.19171,0.0965 -0.2869,0.14344 0,0.0483 -0.0483,0.0965 -0.0483,0.14345 -0.23863,0 -0.4303,0.14478 -0.57375,0.23997 -0.0952,0 -0.23863,0.0952 -0.23863,0.0952 -0.0483,-0.0471 -0.0483,-0.0471 -0.14345,-0.0952 -0.0483,-0.0952 -0.0483,-0.14345 -0.0483,-0.23997 0,-0.0471 0,-0.14345 0,-0.19037 0.57375,-0.19171 1.19576,-0.33511 1.81777,-0.43168 0,0 -0.0483,0.0483 -0.0483,0.0483 z m 0.52683,1.24403 c -0.14345,-0.0483 -0.28685,-0.0483 -0.4303,0.0483 0,0 0,0 0,0 0,-0.0483 0,-0.0965 0,-0.14346 0.23864,-0.0965 0.38204,-0.23995 0.4303,-0.33514 0.0483,-0.0483 0.0483,-0.0483 0.0483,-0.0483 l 0.14345,0 c 0,0.0483 0.0483,0.0483 0.14345,0.0483 l 0.14344,0.0483 c 0.0483,0 0.0483,0 0.0952,0 -0.14345,0.19033 -0.38204,0.38204 -0.57375,0.38204 z m -0.47857,2.10599 c 0,0.047 -0.0483,0.047 -0.14346,0.0952 -0.14343,0.0483 -0.23859,0.23997 -0.28684,0.38337 0,0 0,0.0952 -0.0483,0.19037 0,0 -0.0471,0 -0.0471,0.0483 -0.0483,-0.0483 -0.0483,-0.0483 -0.0965,-0.0483 0.0483,-0.14344 0.0483,-0.28689 0,-0.43029 -0.0483,-0.0952 -0.14343,-0.19171 -0.28689,-0.23864 -0.14345,-0.0483 -0.28685,-0.14346 -0.4303,-0.28823 0.23865,-0.14346 0.5255,-0.23863 0.81371,-0.38205 0.19039,-0.0483 0.4303,-0.14343 0.62201,-0.23995 0.0471,-0.0471 0.0952,-0.0952 0.14346,-0.14345 0.047,-0.0471 0.047,-0.0471 0.0952,-0.0952 l 0.0483,0 c 0,0 0.0471,0 0.0471,0 0.0483,0 0.0483,0 0.0965,0 -0.0483,0.0952 -0.0483,0.14345 -0.0483,0.19171 0,0.0471 -0.0952,0.14345 -0.14345,0.19171 -0.14346,0.14344 -0.33511,0.38203 -0.33511,0.66893 0,0.0483 0,0.0483 0,0.0965 z m 0.62201,1.96121 c -0.0952,0.0483 -0.14345,0.0483 -0.19171,0.0952 -0.4303,0.23997 -0.71719,0.57509 -0.90888,1.05367 -0.23864,0.14345 -0.47858,0.33511 -0.62202,0.47857 -0.14345,0.14345 -0.28685,0.28685 -0.47858,0.33378 -0.14343,0.14478 -0.23863,0.38341 -0.19037,0.5751 -0.0483,0.0471 -0.28823,0.19171 -0.38342,0.28684 -0.33515,0.14346 -0.71719,0.38205 -0.90889,0.81371 -0.23997,-0.14345 -0.52683,-0.14345 -0.95714,-0.19171 -0.0483,0 -0.0952,0 -0.14344,0.0483 -0.14345,0.0471 -0.2869,0.0952 -0.38342,0.23865 0,-0.0483 0,-0.0483 0,-0.0483 -0.0952,0 -0.23865,-0.0471 -0.38205,-0.0471 -0.0482,0 -0.14345,0 -0.19171,0 -0.62201,0.14346 -1.19576,0.66893 -1.38746,1.43438 -0.14344,0.5751 -0.0483,1.10059 0.19171,1.53224 -0.23997,-0.0965 -0.47857,-0.23997 -0.67027,-0.43168 l -0.0483,0 c 0,-0.0952 -0.0471,-0.14344 -0.0952,-0.23863 l 0,-0.0952 c -0.0483,-0.47857 -0.28685,-0.86196 -0.52683,-1.14884 -0.23863,-0.28685 -0.38203,-0.57375 -0.38203,-0.95715 0.0471,-0.19171 -0.0483,-0.33516 -0.14345,-0.4303 -0.14345,-0.0965 -0.2869,-0.14345 -0.43168,-0.0965 l 0,0 c -0.0952,-0.14345 -0.19037,-0.23863 -0.33378,-0.38204 0,-0.33511 0,-0.71719 0,-1.05231 l 0,-0.0483 0.047,-0.23864 0.14345,-0.19172 c 0.23997,-0.3351 0.52684,-0.71853 0.52684,-1.24402 0.95714,-1.24402 2.10465,-2.29769 3.44519,-3.11006 0.0483,0.0471 0.14345,0.0471 0.23864,0.0471 0.0965,0 0.38341,-0.0471 0.5751,-0.23859 0.0952,-0.0952 0.14345,-0.23996 0.14345,-0.33515 0.047,-0.0483 0.0952,-0.0952 0.19038,-0.0952 0,0 0,0 0.0483,0 0.0483,0 0.14344,0 0.1917,0 0.14345,-0.0483 0.23864,-0.0965 0.33511,-0.19171 0.0952,-0.0483 0.14345,-0.0952 0.19171,-0.14345 0.0471,-0.0483 0.0471,-0.0483 0.0471,-0.0483 0.0483,-0.0483 0.0965,-0.0483 0.19171,-0.0952 0,0.0471 0,0.0471 0,0.0471 0.0952,0.19171 0.19171,0.28823 0.33511,0.38342 0.19171,0.23865 0.4303,0.28691 0.62201,0.28691 0.23863,0 0.4303,-0.0952 0.62201,-0.14346 0.0483,0.0483 0.0952,0.0483 0.19172,0.0952 0,0 0,0 -0.0483,0 -0.52684,0.23996 -1.10059,0.43167 -1.48266,0.95715 -0.19169,0.19171 -0.14478,0.43167 0,0.62201 l 0.0952,0.0965 c 0.23864,0.19171 0.4303,0.4303 0.71719,0.57375 0,0.28685 0.14345,0.57376 0.33516,0.71719 0.0483,0.0965 0.0965,0.19171 0.14346,0.23997 0.0965,0.0952 0.23995,0.1917 0.3834,0.14344 0.19172,0 0.38205,-0.0483 0.5255,-0.1917 0.28823,-0.0952 0.52683,-0.33516 0.57509,-0.62202 0.0471,-0.0471 0.0471,-0.0952 0.0952,-0.14345 0.23997,-0.14344 0.4303,-0.33515 0.52683,-0.57375 0.0952,-0.0965 0.0952,-0.23996 0.0471,-0.38341 0.0483,-0.0952 0.19172,-0.23865 0.28823,-0.38204 0.0471,0 0.0952,0.0471 0.14346,0.0471 0,0.0965 0,0.19171 0,0.23997 0.047,0.0952 0.0952,0.19171 0.0952,0.23863 0.0483,0.0965 0.0952,0.14345 0.14344,0.19171 0.14345,0.0965 0.23997,0.14345 0.38342,0.14345 0.14346,-0.0471 0.28691,-0.0471 0.38205,-0.0952 0,0.14345 0.0483,0.33511 0.19171,0.5255 -0.0952,0.0483 -0.14345,0.14477 -0.19171,0.23997 -0.0952,0.0483 -0.14346,0.0483 -0.19172,0.0952 -0.14345,0.0483 -0.2869,0.14344 -0.33378,0.14344 -0.0483,0 -0.0965,0 -0.23997,-0.0952 0,0 -0.0483,-0.0483 -0.0952,-0.0483 -0.0483,0 -0.14343,0 -0.19169,0 -0.23997,0 -0.38343,0.0965 -0.47858,0.1917 -0.0952,0 -0.19171,0.0483 -0.2869,0.14345 -0.0965,0.14346 -0.0965,0.33511 -0.0483,0.47858 z m 11.43617,1.5309 c -0.0965,0.14345 -0.14346,0.28685 -0.0483,0.47858 0,0 -0.0952,0.0483 -0.19171,0.0965 -0.0952,0 -0.23863,-0.0483 -0.33515,0 -0.0471,-0.0483 -0.0952,-0.0483 -0.14346,-0.0483 0,-0.0483 0,-0.0483 0.0483,-0.0965 0,-0.0952 0.0483,-0.28685 0.0483,-0.47724 0.0952,0.0471 0.14346,0.0471 0.19039,0.0471 0.1917,0 0.33515,0 0.43167,0 z m 0.90888,0.52684 c 0,0 0.0483,-0.0483 0.0483,-0.0483 0.14345,-0.0483 0.33378,-0.19172 0.47724,-0.33511 0,0 0,-0.0471 0.0483,-0.0471 -0.0483,0.14346 -0.0483,0.23865 -0.0483,0.38205 -0.19037,0.0483 -0.38205,0.0965 -0.57376,0.14345 0.0483,-0.0471 0.0483,-0.0471 0.0483,-0.0952 z m 0.38204,-1.38747 c -0.14345,-0.0483 -0.33378,-0.0483 -0.47857,0.0471 0,0.0483 0,0.0483 -0.047,0.0483 0,-0.23865 -0.0483,-0.4303 -0.14345,-0.5255 0.047,-0.0483 0.0952,-0.0483 0.14345,-0.0965 0.0952,-0.0483 0.14344,-0.0952 0.28685,-0.14345 0.14344,0.19171 0.33515,0.4303 0.47857,0.62202 -0.0965,0.0482 -0.14345,0.0952 -0.23997,0.0482 z m 1.9143,2.05774 c -0.0952,0.0471 -0.14345,0.14345 -0.19171,0.23864 -0.0471,0 -0.0952,-0.0483 -0.14345,-0.0483 l 0,-0.0952 c 0.0965,-0.0952 0.0965,-0.23997 0.0483,-0.38337 0,-0.14345 -0.0952,-0.23864 -0.23997,-0.2869 0,0 -0.0471,-0.0471 -0.0952,-0.0471 0.0483,-0.0483 0.0483,-0.14478 0.0483,-0.19171 0.047,0 0.0952,-0.0483 0.14345,-0.0483 0.14345,0.2869 0.28685,0.57376 0.4303,0.86197 z m -9.66531,-6.31664 c 0.14345,-0.0483 0.47857,-0.14345 0.52683,-0.47857 0.0471,-0.14345 0.0471,-0.33515 -0.14345,-0.57376 0,-0.0483 -0.0483,-0.0483 -0.0483,-0.0483 l 0,0 c 0.57375,0.14345 1.14885,0.3351 1.67434,0.57375 -0.23865,0.0483 -0.47858,0.14478 -0.76545,0.23997 -0.0483,0 -0.0952,0.0483 -0.19171,0.0483 -0.19037,0.19037 -0.33378,0.38204 -0.47858,0.57375 -0.14345,0.14345 -0.23863,0.28685 -0.33378,0.38204 -0.14344,-0.0952 -0.23996,-0.28685 -0.28821,-0.66893 0,0 0,0 0.0482,-0.0483 z m 4.01894,9.57013 c 0.0483,-0.0483 0.0965,-0.0965 0.0965,-0.14345 0.28689,-0.57508 0.57376,-1.10058 1.05233,-1.24402 0.23863,-0.0965 0.38337,-0.33515 0.33511,-0.57509 -0.0483,-0.19172 -0.0483,-0.19172 0.14345,-0.33511 0.0952,-0.0952 0.28685,-0.19037 0.38204,-0.38204 0.47857,0.0483 1.00541,-0.0483 1.48398,-0.1917 0.28689,-0.0952 0.57374,-0.19171 0.86063,-0.19171 l 0,0.0483 c -0.0952,0.0952 -0.14345,0.28685 -0.0952,0.4303 0.0952,0.14344 0.23863,0.23995 0.38341,0.28689 0.28685,0.0483 0.52549,0.19171 0.76545,0.33511 0.0952,0.0483 0.23864,0.0965 0.33378,0.14345 0.47857,1.38746 0.67027,2.82318 0.67027,4.2589 0,1.43572 -0.19171,2.82318 -0.62201,4.16238 l 0,0 c -0.0483,-0.23864 -0.0483,-0.4303 -0.14345,-0.66893 -0.0483,-0.14477 -0.0952,-0.28823 -0.14344,-0.43162 -0.0483,-0.19039 -0.14345,-0.33517 -0.19171,-0.57376 0.0483,-0.38342 -0.0471,-0.71719 -0.19171,-1.05232 0,0 0,-0.0483 0,-0.0965 0,-0.19038 -0.0952,-0.28685 -0.23864,-0.38204 0,-0.0483 -0.0483,-0.0483 -0.0952,-0.0483 -0.0483,-0.0952 -0.14344,-0.14345 -0.23996,-0.14345 -0.19171,-0.19171 -0.4303,-0.28689 -0.71719,-0.38204 -0.0483,-0.0483 -0.14345,-0.0483 -0.23997,-0.0483 -0.47857,-0.0483 -1.00407,0 -1.43438,0.23864 l -0.14478,0.0483 c -0.23864,0.0483 -0.47723,0.0952 -0.71719,0.14345 -0.33511,-0.23864 -0.52683,-0.52683 -0.81371,-0.86063 -0.14345,-0.19171 -0.28685,-0.43168 -0.47857,-0.62201 -0.0471,-0.14478 0,-0.33511 0.0483,-0.52683 0.0952,-0.33516 0.19169,-0.76545 -0.0483,-1.19577 z m -7.17726,-12.53675 c -8.22959,0 -14.9752,6.74695 -14.9752,14.97654 0,8.27785 6.74561,15.02346 14.9752,15.02346 8.27785,0 15.0248,-6.74561 15.0248,-15.02346 0,-8.22959 -6.74695,-14.97654 -15.0248,-14.97654 z"
       id="path4199"
       inkscape:connector-curvature="0" />
  </g>
</svg>
