<?xml version="1.0" encoding="UTF-8" standalone="no"?>
<!-- Generator: Adobe Illustrator 19.1.0, SVG Export Plug-In . SVG Version: 6.00 Build 0)  -->

<svg
   xmlns:dc="http://purl.org/dc/elements/1.1/"
   xmlns:cc="http://creativecommons.org/ns#"
   xmlns:rdf="http://www.w3.org/1999/02/22-rdf-syntax-ns#"
   xmlns:svg="http://www.w3.org/2000/svg"
   xmlns="http://www.w3.org/2000/svg"
   xmlns:sodipodi="http://sodipodi.sourceforge.net/DTD/sodipodi-0.dtd"
   xmlns:inkscape="http://www.inkscape.org/namespaces/inkscape"
   version="1.1"
   id="Capa_1"
   x="0px"
   y="0px"
   viewBox="0 0 775.36 775.36"
   xml:space="preserve"
   width="48"
   height="48"
   inkscape:version="0.91 r13725"
   sodipodi:docname="phonebook.svg"><metadata
     id="metadata49"><rdf:RDF><cc:Work
         rdf:about=""><dc:format>image/svg+xml</dc:format><dc:type
           rdf:resource="http://purl.org/dc/dcmitype/StillImage" /><dc:title></dc:title></cc:Work></rdf:RDF></metadata><defs
     id="defs47" /><sodipodi:namedview
     pagecolor="#0d596e"
     bordercolor="#666666"
     borderopacity="1"
     objecttolerance="10"
     gridtolerance="10"
     guidetolerance="10"
     inkscape:pageopacity="0"
     inkscape:pageshadow="2"
     inkscape:window-width="1628"
     inkscape:window-height="941"
     id="namedview45"
     showgrid="false"
     inkscape:zoom="11.125146"
     inkscape:cx="19.333559"
     inkscape:cy="19.535416"
     inkscape:window-x="0"
     inkscape:window-y="0"
     inkscape:window-maximized="0"
     inkscape:current-layer="Capa_1" /><g
     id="g3"
     transform="matrix(1.3305085,0,0,1.3305085,89.492908,78.659434)"><g
       id="g5"><path
         d="m 407.1,442 c 0,7.8 -6.4,14.2 -14.2,14.2 l -328.6,0 c -7.8,0 -14.2,-6.4 -14.2,-14.2 l 0,-5.8 305.9,0 c 15.6,0 28.3,-12.7 28.3,-28.3 l 0,-379.6 C 384.3,12.6 371.6,0 356,0 L 50.1,0 C 34.5,0 21.8,12.7 21.8,28.3 l 0,379.6 c 0,0.1 0,0.1 0,0.2 l 0,34 c 0,23.4 19.1,42.5 42.5,42.5 l 328.6,0 c 23.4,0 42.5,-19.1 42.5,-42.5 l 0,-58.9 -28.3,0 0,58.8 0,0 z m -305,-292.6 c 0.6,-7.7 3.5,-14.3 9.2,-19.7 6.1,-5.8 11.9,-11.9 17.9,-17.9 7.9,-7.7 17.7,-7.7 25.6,0 4.9,4.8 9.7,9.6 14.5,14.5 4.7,4.7 9.4,9.4 14.1,14.1 8.2,8.3 8.2,18 0,26.2 -5.9,5.9 -11.7,11.9 -17.7,17.6 -1.6,1.5 -1.7,2.8 -0.9,4.7 3.9,9.5 9.6,17.8 16,25.7 12.9,15.8 27.4,29.9 44.8,40.8 3.7,2.3 7.8,4 11.7,6.1 2,1.1 3.4,0.7 5,-0.9 5.9,-6.1 11.9,-12 17.9,-17.9 7.8,-7.8 17.7,-7.8 25.6,0 9.6,9.5 19.2,19.1 28.8,28.8 8,8.1 7.9,17.9 -0.1,26.1 -5.4,5.5 -11.2,10.7 -16.3,16.5 -7.5,8.4 -16.9,11.1 -27.6,10.5 -15.6,-0.9 -30,-6 -43.9,-12.8 -30.9,-15 -57.2,-35.8 -79.3,-62 -16.3,-19.4 -29.8,-40.6 -38.7,-64.4 -4.5,-11.7 -7.5,-23.5 -6.6,-36 z"
         id="path7"
         inkscape:connector-curvature="0"
         style="fill:#ffffff" /><path
         d="m 445.8,160.1 -37.8,0 0,83.1 37.8,0 c 9.4,0 17,-7.6 17,-17 l 0,-49.1 c 0,-9.4 -7.6,-17 -17,-17 z"
         id="path9"
         inkscape:connector-curvature="0"
         style="fill:#ffffff" /><path
         d="m 445.8,270.6 -37.8,0 0,83.1 37.8,0 c 9.4,0 17,-7.6 17,-17 l 0,-49.1 c 0,-9.4 -7.6,-17 -17,-17 z"
         id="path11"
         inkscape:connector-curvature="0"
         style="fill:#ffffff" /><path
         d="m 445.8,49.6 -37.8,0 0,83.1 37.8,0 c 9.4,0 17,-7.6 17,-17 l 0,-49.1 c 0,-9.4 -7.6,-17 -17,-17 z"
         id="path13"
         inkscape:connector-curvature="0"
         style="fill:#ffffff" /></g></g><g
     id="g15"
     transform="translate(0,290.76001)" /><g
     id="g17"
     transform="translate(0,290.76001)" /><g
     id="g19"
     transform="translate(0,290.76001)" /><g
     id="g21"
     transform="translate(0,290.76001)" /><g
     id="g23"
     transform="translate(0,290.76001)" /><g
     id="g25"
     transform="translate(0,290.76001)" /><g
     id="g27"
     transform="translate(0,290.76001)" /><g
     id="g29"
     transform="translate(0,290.76001)" /><g
     id="g31"
     transform="translate(0,290.76001)" /><g
     id="g33"
     transform="translate(0,290.76001)" /><g
     id="g35"
     transform="translate(0,290.76001)" /><g
     id="g37"
     transform="translate(0,290.76001)" /><g
     id="g39"
     transform="translate(0,290.76001)" /><g
     id="g41"
     transform="translate(0,290.76001)" /><g
     id="g43"
     transform="translate(0,290.76001)" /></svg>