<?xml version="1.0" encoding="iso-8859-1"?>
<!-- Generator: Adobe Illustrator 18.1.1, SVG Export Plug-In . SVG Version: 6.00 Build 0)  -->
<svg xmlns="http://www.w3.org/2000/svg" xmlns:xlink="http://www.w3.org/1999/xlink" version="1.1" id="Capa_1" x="0px" y="0px" viewBox="0 0 319.801 319.801" style="enable-background:new 0 0 319.801 319.801;" xml:space="preserve" width="30px" height="30px">
<g>
	<g>
		<path d="M252.601,0H67.194C30.083,0,0,30.083,0,67.2v185.401c0,37.111,30.083,67.2,67.2,67.2h185.401    c37.111,0,67.2-30.083,67.2-67.2V67.2C319.801,30.083,289.712,0,252.601,0z M206.081,148.215v17.508h-55.75v-0.566v-16.943    v-10.307l-28.202,40.673l39.275,25.672h0.06l-0.288,58.666l-18.128-0.087l0.228-48.767l-28.093-18.362l-12.064-7.887l0.816,27.636    h0.071l0.457,18.123l-68.38,1.724l-0.457-18.123l50.186-1.262l-1.469-49.653h0.016l-0.016-0.011l30.839-44.475l8.403-12.124    l-8.403,0.196l-28.822,0.669l1.235,40.189l-17.497,0.538l-1.24-40.32l-0.473-15.403l17.497-0.538l0.005,0.136l29.996-0.696    l18.313-0.424l0.011,0.343l0.239-0.343l31.226,21.653h0.065v32.58h40.342V148.215z M115.188,244.187l0.43-0.011l-0.272-10.873    l-0.152-6.097v-18.504l17.187,11.232l-0.201,42.849l-0.049,10.878l10.878,0.049l18.128,0.087l10.878,0.049l0.049-10.878    l0.277-58.666l0.027-5.39c-3.568-2.306-7.065-4.699-10.421-7.305l-24.503-16.018l2.018-2.91v3.916h10.878h55.75h10.878v-10.878    v-17.503v-10.878h-10.878h-29.463v-21.702v-5.483c-2.529-1.713-4.998-3.514-7.408-5.396h-0.131l-21.038-14.588    c-0.99-0.582-1.73-1.142-2.42-1.681l-0.713-0.495v-0.049c-2.807-2.127-6.021-3.78-24.046-4.378    c-0.234-0.005-0.408-0.087-0.609-0.136l-2.214,0.049c0.136-0.517,0.256-1.05,0.402-1.561c-0.446-1.159-0.092-2.589,1.023-3.318    c10.9-32.683,41.685-56.278,78.034-56.278c45.454,0,82.304,36.85,82.304,82.304v170.613H115.188V244.187z" fill="#FFFFFF"/>
		<path d="M180.615,34.337c-18.493,0-33.543,15.044-33.543,33.543c0,6.614,1.947,12.765,5.265,17.965    c1.675,2.622,3.699,4.993,6.016,7.054c2.116,1.887,4.465,3.508,7.005,4.814c2.219,1.137,4.58,2.023,7.054,2.649    c2.633,0.664,5.368,1.055,8.202,1.055c18.493,0,33.543-15.044,33.543-33.543S199.113,34.337,180.615,34.337z M180.615,90.539    c-2.861,0-5.575-0.587-8.099-1.556c-2.159-0.832-4.123-2.002-5.907-3.416c-5.238-4.15-8.659-10.492-8.659-17.693    c0-12.515,10.144-22.665,22.665-22.665c12.521,0,22.665,10.144,22.665,22.665S193.136,90.539,180.615,90.539z" fill="#FFFFFF"/>
	</g>
</g>
<g>
</g>
<g>
</g>
<g>
</g>
<g>
</g>
<g>
</g>
<g>
</g>
<g>
</g>
<g>
</g>
<g>
</g>
<g>
</g>
<g>
</g>
<g>
</g>
<g>
</g>
<g>
</g>
<g>
</g>
</svg>
