<svg xmlns="http://www.w3.org/2000/svg" viewBox="0 0 34.3 34.3"><path d="M26 21.7c-2.2-.5-5-1.8-6-3.5-.6-1-.6-2-.2-2.8l.1-.2c0-.2 0-.5.2-.8H9l.6 1c.5.9.4 1.9-.1 2.8-1 1.7-3.8 3-6 3.5l-.6 10.1c0 1.1.7 2 1.6 2H25c1 0 1.6-.9 1.6-2l-.6-10zm-14.7 7h-2a.6.6 0 0 1 0-1.3h2a.6.6 0 0 1 0 1.3zm0-2.5h-2a.6.6 0 0 1 0-1.3h2a.6.6 0 1 1 0 1.3zm0-2.4h-2a.6.6 0 1 1 0-1.3h2a.6.6 0 0 1 0 1.3zm4.3 4.9h-1.9a.6.6 0 0 1 0-1.3h2a.6.6 0 0 1 0 1.3zm0-2.5h-1.9a.6.6 0 0 1 0-1.3h2a.6.6 0 1 1 0 1.3zm0-2.4h-1.9a.6.6 0 0 1 0-1.3h2a.6.6 0 1 1 0 1.3zm4.4 4.9h-2c-.3 0-.6-.3-.6-.7s.3-.6.6-.6h2c.3 0 .6.3.6.6s-.3.7-.6.7zm0-2.5h-2c-.3 0-.6-.3-.6-.6s.3-.7.6-.7h2a.6.6 0 1 1 0 1.3zm0-2.4h-2a.6.6 0 0 1-.6-.7c0-.3.3-.6.6-.6h2c.3 0 .6.3.6.6 0 .4-.3.7-.6.7zM27.6 10v.6c-.1 1-.7 2-1 3-.4 1.3-7 .3-6.6-1.4.2-.6 1-2.4.9-3 0-.6-.9-.8-1.6-.7-1.8.2-4 1-5.9 1.4h-.3l-5.9 1.5c-.6.2-1.2.8-1 1.3.2.6 1.7 1.9 2.1 2.3 1.2 1.4-4.2 5.2-5.2 4.2-.7-.7-1.7-1.3-2.3-2.2l-.2-.5c-1.8-3.6.6-8.4 5.5-10 2-.7 3.9-1.2 5.8-1.7h.1l.2-.1 5.9-1.1c5.1-.8 9.4 2.3 9.5 6.4zm5.7 4.3l-1.4-.6a9 9 0 0 0-4.3-12l.6-1.4c5.3 2.5 7.5 8.8 5 14zm-2.4-1.1l-1.4-.6c1.5-3.2.1-7-3-8.5l.6-1.4a8 8 0 0 1 3.8 10.5z" fill="#FFF"/></svg>