<?xml version="1.0" encoding="UTF-8" standalone="no"?>
<!-- Generator: Adobe Illustrator 19.0.0, SVG Export Plug-In . SVG Version: 6.00 Build 0)  -->

<svg
   xmlns:dc="http://purl.org/dc/elements/1.1/"
   xmlns:cc="http://creativecommons.org/ns#"
   xmlns:rdf="http://www.w3.org/1999/02/22-rdf-syntax-ns#"
   xmlns:svg="http://www.w3.org/2000/svg"
   xmlns="http://www.w3.org/2000/svg"
   xmlns:sodipodi="http://sodipodi.sourceforge.net/DTD/sodipodi-0.dtd"
   xmlns:inkscape="http://www.inkscape.org/namespaces/inkscape"
   version="1.1"
   id="Layer_1"
   x="0px"
   y="0px"
   viewBox="0 0 319.335 319.335"
   style="enable-background:new 0 0 319.335 319.335;"
   xml:space="preserve"
   inkscape:version="0.91 r13725"
   sodipodi:docname="specialist-man-0.svg"><metadata
     id="metadata83"><rdf:RDF><cc:Work
         rdf:about=""><dc:format>image/svg+xml</dc:format><dc:type
           rdf:resource="http://purl.org/dc/dcmitype/StillImage" /></cc:Work></rdf:RDF></metadata><defs
     id="defs81" /><sodipodi:namedview
     pagecolor="#ffffff"
     bordercolor="#666666"
     borderopacity="1"
     objecttolerance="10"
     gridtolerance="10"
     guidetolerance="10"
     inkscape:pageopacity="0"
     inkscape:pageshadow="2"
     inkscape:window-width="1920"
     inkscape:window-height="1171"
     id="namedview79"
     showgrid="false"
     inkscape:zoom="0.73903583"
     inkscape:cx="73.861884"
     inkscape:cy="-56.98184"
     inkscape:window-x="0"
     inkscape:window-y="0"
     inkscape:window-maximized="1"
     inkscape:current-layer="g5" /><g
     id="g3"><g
       id="g5"><path
         style="fill:#EAEAE1;"
         d="M303.858,253.887c-11.151-37.754-67.121-33.566-91.279-44.408    c-24.157-10.842-20.386-47.219-23.449-53.548h-58.932c-3.058,6.329,0.714,42.711-23.449,53.548    c-24.157,10.842-80.133,6.655-91.279,44.408c-6.149,20.824-5.857,27.193-7.554,50.26c0,0,76.8,15.187,150.014,15.187    s153.488-15.187,153.488-15.187C309.715,281.074,310.007,274.712,303.858,253.887z"
         id="path7" /><path
         style="fill:#E0DBD3;"
         d="M303.858,253.887c-11.151-37.754-67.121-33.566-91.279-44.408    c-24.157-10.842-20.386-47.219-23.449-53.548h-31.206c0,0-0.719,51.024,23.438,61.866s80.133,6.655,91.279,44.408    c5.857,19.83,5.868,26.552,7.324,47.073c19.234-2.816,31.442-5.126,31.442-5.126C309.715,281.074,310.007,274.712,303.858,253.887    z"
         id="path9" /><g
         id="g11"><polygon
           style="fill:#C6C5AF;"
           points="209.381,207.798 176.293,236.492 171.307,205.887    "
           id="polygon13" /><polygon
           style="fill:#C6C5AF;"
           points="109.419,208.113 143.002,236.492 146.981,205.887    "
           id="polygon15" /><polygon
           style="fill:#C6C5AF;"
           points="172.19,205.887 146.981,205.887 145.07,212.07 174.146,212.239    "
           id="polygon17" /><polygon
           style="fill:#AAA88F;"
           points="146.981,205.887 145.07,212.07 146.172,212.789    "
           id="polygon19" /><polygon
           style="fill:#AAA88F;"
           points="174.146,212.239 171.375,206.112 172.499,213.194    "
           id="polygon21" /><path
           style="fill:#4C4C4C;"
           d="M173.617,319.109l0.579-7.987l-6.082-80.51H152.09l-7.099,80.515l0.585,8.066     c4.12,0.084,8.24,0.141,12.354,0.141C163.135,319.335,168.373,319.249,173.617,319.109z"
           id="path23" /><polygon
           style="fill:#3A3A38;"
           points="152.152,230.966 168.115,230.607 168.441,235.103    "
           id="polygon25" /><polygon
           style="fill:#4C4C4C;"
           points="140.725,208.551 178.44,208.529 176.293,221.4 167.777,230.966 152.152,230.966      142.878,221.4    "
           id="polygon27" /><path
           style="fill:#EAEAE1;"
           d="M146.981,205.887l-25.72-13.984c0,0-3.389,4.817-11.843,16.21l31.723,22.853l2.704-14.923     L146.981,205.887z"
           id="path29" /><path
           style="fill:#EAEAE1;"
           d="M171.307,205.887l25.72-13.984c0,0,3.901,4.502,12.354,15.895l-32.234,23.168l-2.704-14.923     L171.307,205.887z"
           id="path31" /><path
           style="fill:#E0DBD3;"
           d="M197.027,191.903l-25.72,13.984l1.776,5.772c2.372,2.602,5.109,4.716,8.279,6.138     c2.805,1.259,6.037,2.316,9.578,3.254l18.436-13.248C200.928,196.405,197.027,191.903,197.027,191.903z"
           id="path33" /></g><g
         id="g35"><ellipse
           transform="matrix(-0.177 0.9842 -0.9842 -0.177 386.2379 -85.1184)"
           style="fill:#CCA483;"
           cx="228.707"
           cy="118.927"
           rx="21.386"
           ry="11.629"
           id="ellipse37" /><ellipse
           transform="matrix(-0.9842 0.177 -0.177 -0.9842 200.5228 219.9815)"
           style="fill:#DBB491;"
           cx="90.45"
           cy="118.935"
           rx="11.629"
           ry="21.386"
           id="ellipse39" /><path
           style="fill:#DBB491;"
           d="M223.826,47.734h-64.221H95.418c0,0-35.989,146.614,64.187,160.806     C259.821,194.348,223.826,47.734,223.826,47.734z"
           id="path41" /><path
           style="fill:#CCA483;"
           d="M159.605,208.54c100.216-14.192,64.221-160.806,64.221-160.806h-15.024     c4.114,61.242,9.808,93.774-13.815,129.24C176.27,205.078,159.605,208.54,159.605,208.54z"
           id="path43" /><path
           style="fill:#CCA483;"
           d="M192.851,55.603L90.494,83.734c8.661,3.468,25.574,9.864,61.748,9.707     c20.133-0.09,64.412-6.239,74.203-29.795L192.851,55.603z"
           id="path45" /><path
           style="fill:#515151"
           d="m 223.478,34.031 c 0,0 -7.633,-27.322 -58.027,-33.409 C 123.17733,0.4959003 108.56182,10.667364 87.482153,34.375601 81.512416,41.147279 68.671537,62.340871 78.646,80.76 c -0.247,10.792 0.478,24.866 10.859,36.264 0,0 -0.916,-18.548 0.956,-33.313 0,0 22.837,5.593 49.04,5.649 27.856,0.056 64.997,-4.519 86.951,-25.72 0,0 3.294,20.167 3.294,53.385 0,0 7.509,-7.931 8.768,-20.026 2.849,-27.434 5.513,-64.227 -15.036,-62.968 z"
           id="path47"
           inkscape:connector-curvature="0"
           sodipodi:nodetypes="ccccccccccc" /></g></g></g><g
     id="g49" /><g
     id="g51" /><g
     id="g53" /><g
     id="g55" /><g
     id="g57" /><g
     id="g59" /><g
     id="g61" /><g
     id="g63" /><g
     id="g65" /><g
     id="g67" /><g
     id="g69" /><g
     id="g71" /><g
     id="g73" /><g
     id="g75" /><g
     id="g77" /></svg>