<?xml version="1.0" encoding="UTF-8" standalone="no"?>
<svg
   xmlns:dc="http://purl.org/dc/elements/1.1/"
   xmlns:cc="http://creativecommons.org/ns#"
   xmlns:rdf="http://www.w3.org/1999/02/22-rdf-syntax-ns#"
   xmlns:svg="http://www.w3.org/2000/svg"
   xmlns="http://www.w3.org/2000/svg"
   xmlns:sodipodi="http://sodipodi.sourceforge.net/DTD/sodipodi-0.dtd"
   xmlns:inkscape="http://www.inkscape.org/namespaces/inkscape"
   version="1.1"
   id="Capa_1"
   x="0px"
   y="0px"
   viewBox="0 0 24 24"
   style="enable-background:new 0 0 100 100;"
   xml:space="preserve"
   inkscape:version="0.91 r13725"
   sodipodi:docname="call.svg"><metadata
     id="metadata51"><rdf:RDF><cc:Work
         rdf:about=""><dc:format>image/svg+xml</dc:format><dc:type
           rdf:resource="http://purl.org/dc/dcmitype/StillImage" /><dc:title></dc:title></cc:Work></rdf:RDF></metadata><defs
     id="defs49" /><sodipodi:namedview
     pagecolor="#ffffff"
     bordercolor="#666666"
     borderopacity="1"
     objecttolerance="10"
     gridtolerance="10"
     guidetolerance="10"
     inkscape:pageopacity="0"
     inkscape:pageshadow="2"
     inkscape:window-width="1920"
     inkscape:window-height="1171"
     id="namedview47"
     showgrid="true"
     inkscape:zoom="9.1740667"
     inkscape:cx="11.020411"
     inkscape:cy="11.71195"
     inkscape:window-x="0"
     inkscape:window-y="0"
     inkscape:window-maximized="1"
     inkscape:current-layer="Capa_1"
     showguides="false"><inkscape:grid
       type="xygrid"
       id="grid4133" /></sodipodi:namedview><path
     d="M 11.999999,0 A 11.999999,11.999999 0 0 0 0,11.999999 11.999999,11.999999 0 0 0 11.999999,24 11.999999,11.999999 0 0 0 24,11.999999 11.999999,11.999999 0 0 0 11.999999,0 Z m -0.751564,4.5722568 c 2.258233,0 4.2969,0.9095352 5.786706,2.3993424 1.474124,1.474124 2.383721,3.5128348 2.383721,5.7553858 0,0.219552 -0.01571,0.454768 -0.0314,0.689999 -0.01568,0.20387 -0.203884,0.360646 -0.407752,0.344964 -0.203868,-0.01567 -0.360644,-0.203806 -0.344963,-0.407677 0,-0.109775 0.01562,-0.20393 0.01562,-0.298021 l 0,-0.344964 c 0,-2.054362 -0.831125,-3.9048436 -2.164109,-5.2378276 -1.348666,-1.332984 -3.199148,-2.1641856 -5.23783,-2.1641856 -0.21955,0 -0.423434,0.01572 -0.642984,0.0314 -0.109774,0 -0.219566,0.015624 -0.32934,0.03132 -0.109776,0.015672 -0.203869,0.031408 -0.313644,0.047088 C 9.7742784,5.4661288 9.5704552,5.3250032 9.539092,5.121136 9.492036,4.9329488 9.6331688,4.729052 9.8370376,4.6976872 c 0.2352324,-0.047056 0.4704644,-0.078424 0.7056964,-0.09411 0.235233,-0.015672 0.470466,-0.03132 0.705698,-0.03132 z M 6.4352808,5.132772 C 6.8301432,5.148924 7.1837664,5.4004704 7.4376216,5.9836512 L 8.6765752,8.759352 c 0.5802392,1.552531 -1.207528,1.960298 -1.176164,2.775773 0.01568,0.533193 1.3643024,2.179836 1.6779472,2.524843 0.6586504,0.721382 2.6816506,2.305265 3.7637206,2.571863 0.517511,0.125456 0.956627,-0.533195 1.191861,-0.78411 0.972294,-1.035022 1.003627,-1.364347 1.928875,-0.862517 l 2.775775,1.489805 c 1.066388,0.642969 -0.376403,2.728649 -1.442791,3.324574 C 12.597055,22.418506 3.9875592,14.483374 3.2975438,9.5748528 3.0892654,8.0188864 5.0250544,5.0750184 6.43528,5.132772 Z m 4.8288522,1.5878976 c 0.156821,0 0.329264,1.44e-5 0.486086,0.015696 1.458442,0.1097736 2.775743,0.7527576 3.763721,1.7407368 0.862519,0.8625192 1.474154,1.9915896 1.678023,3.2461636 0.04704,0.329323 0.07841,0.658711 0.07841,1.003719 0,0.172504 -1.5e-5,0.344977 -0.0157,0.517482 -0.01568,0.203866 -0.203884,0.360721 -0.407752,0.345039 -0.203868,-0.01568 -0.360645,-0.203884 -0.344962,-0.407753 0,-0.109776 0.01565,-0.203885 0.04702,-0.329343 l 0,-0.156821 c 0,-0.690016 -0.141125,-1.348651 -0.376358,-1.944574 C 15.90603,10.092364 15.498294,9.4807152 14.996466,8.9788848 14.38486,8.3672784 13.6321,7.9125144 12.785263,7.6615992 12.299116,7.5204584 11.797332,7.4420616 11.264139,7.4420616 c -0.14114,0 -0.298023,1.6e-5 -0.454845,0.015696 -0.04705,0 -0.09408,0.015696 -0.141124,0.015696 -0.109775,0.01568 -0.203868,0.031336 -0.313643,0.047024 C 10.166341,7.5675176 9.9625184,7.4263992 9.9311544,7.2225304 9.8841064,7.034344 10.025232,6.8304448 10.2291,6.79908 10.401604,6.767712 10.574077,6.752056 10.746582,6.736368 10.919085,6.720696 11.091634,6.720672 11.264139,6.720672 Z m 0.01562,2.0857728 c 0.329325,0 0.67438,0.047016 0.988022,0.1254264 0.674334,0.188184 1.270211,0.533196 1.756358,1.0193432 0.392054,0.407735 0.721425,0.893913 0.909611,1.442788 0.14114,0.423418 0.219535,0.862504 0.219535,1.317286 l 0,0.172521 c -0.01568,0.07841 -0.0157,0.125395 -0.0157,0.172443 -0.01568,0.203868 -0.203882,0.36072 -0.407751,0.345036 -0.203868,-0.01567 -0.360644,-0.203883 -0.344962,-0.407751 0.01568,-0.06273 0.01565,-0.109773 0.04702,-0.156821 l 0,-0.141125 0,-0.0314 c -0.01568,-0.862519 -0.360671,-1.630947 -0.925228,-2.195503 -0.56456,-0.580242 -1.36438,-0.925234 -2.2269,-0.925234 -0.07841,0 -0.156821,0.015696 -0.235232,0.015696 l -0.04702,0 c -0.09409,0 -0.172535,0.01572 -0.266628,0.0314 -0.188186,0.04704 -0.392008,-0.094154 -0.423372,-0.2980216 -0.04704,-0.1881864 0.09408,-0.3920096 0.297945,-0.423372 l 0.329343,-0.047104 c 0.125456,-0.01568 0.235186,-0.015632 0.34496,-0.015632 z"
     id="path4179"
     inkscape:connector-curvature="0" /></svg>
