<?xml version="1.0" encoding="iso-8859-1"?>
<!-- Generator: Adobe Illustrator 19.0.0, SVG Export Plug-In . SVG Version: 6.00 Build 0)  -->
<svg version="1.1" id="Capa_1" xmlns="http://www.w3.org/2000/svg" xmlns:xlink="http://www.w3.org/1999/xlink" x="0px" y="0px"
	 viewBox="0 0 512 512" style="enable-background:new 0 0 512 512;" xml:space="preserve">
<path style="fill:#40596B;" d="M382.037,381.239c-83.584,34.208-167.179,34.208-250.763,0
	c-17.141-83.403-22.165-166.805-15.072-250.208C122.517,56.813,184.501,1.133,258.976,1.698c0.843,0,1.675,0.011,2.496,0.032
	c70.187,1.099,129.013,55.413,135.285,125.323C404.352,211.778,399.445,296.503,382.037,381.239"/>
<path style="fill:#F2F2F2;" d="M512,444.066v66.24H0v-66.24c9.92-18.987,30.731-48.32,68.917-59.2l0.107,0.107
	c2.123,0.533,28.043,8.533,61.003,17.173c22.411,5.76,48.224,11.84,71.893,15.893h0.107c20.811,3.627,40.117,5.653,53.984,4.8
	c13.984,0.853,33.173-1.173,54.08-4.8h0.107c23.691-4.16,49.504-10.24,72-15.893c34.24-8.96,60.907-17.28,60.907-17.28h0.117
	C481.28,395.853,502.187,425.186,512,444.066"/>
<path style="fill:#F8B64C;" d="M323.563,297.495l-2.603-10.848H191.04l-2.603,10.848l-0.128,0.245
	c0.032-0.043,0.171-0.256,0.171-0.256c-6.144,27.627,1.504,73.568,13.547,120.523c20.864,3.605,40.096,5.728,54.005,4.821
	c13.92,0.907,33.173-1.216,54.059-4.832c12.021-46.859,20.885-87.296,14.816-114.933L323.563,297.495z"/>
<g>
	<path style="fill:#ACB3BA;" d="M255.936,303.159c-0.117,0.117-0.245,0.117-0.245,0.117v-0.235
		C255.819,303.042,255.936,303.159,255.936,303.159"/>
	<path style="fill:#ACB3BA;" d="M256.427,303.042v0.245c0,0-0.117,0-0.235-0.128C256.192,303.159,256.309,303.042,256.427,303.042"
		/>
</g>
<g style="opacity:0.1;">
	<g>
		<path style="fill:#40596B;" d="M223.872,315.895l92.064,76.587c0,0,17.067-68.608,5.856-102.347l-90.923,20.736L223.872,315.895z"
			/>
	</g>
</g>
<g>
	<path style="fill:#F8B64C;" d="M165.333,174.413c4.224,18.144,2.005,34.176-4.992,35.808c-6.987,1.632-16.096-11.755-20.32-29.899
		c-4.224-18.155-2.005-34.187,5.003-35.819C152,142.882,161.109,156.279,165.333,174.413"/>
	<path style="fill:#F8B64C;" d="M347.253,174.413c-4.235,18.144-2.005,34.176,4.992,35.808c6.987,1.632,14.869-12.085,20.32-29.899
		c3.264-10.635,1.771-32.363-5.003-35.819C361.173,141.239,351.477,156.279,347.253,174.413"/>
</g>
<path style="fill:#FFD15C;" d="M356.469,227.17c-29.387,93.248-99.797,100.331-99.797,100.331s-70.432-7.083-99.808-100.331
	c0,0-15.733-48.64-2.539-89.173c0,0,8.075-69.163,102.357-69.163c94.272,0,102.336,69.163,102.336,69.163
	C372.192,178.53,356.469,227.17,356.469,227.17"/>
<path style="fill:#40596B;" d="M361.227,146.061c0,0-47.723,63.36-108.395,2.688c-49.333-49.333-100.96-1.739-100.96-1.739
	l-3.147-8.021c0-59.072,47.883-106.965,106.965-106.965s106.976,47.893,106.976,106.965L361.227,146.061z"/>
<path style="fill:#FF7058;" d="M341.333,439.799l18.251,46.933c0,0-15.893,8.427-36.064,23.573h-41.387
	c56.64-167.765,42.24-208.64,41.493-212.587c0,0,20.171,30.293,37.984,63.04c7.349,13.333,14.496,27.52,20.587,41.387
	c5.877,13.227,10.56,26.24,13.227,37.653H341.333z"/>
<path style="fill:#F1543F;" d="M443.211,384.866h-0.117c-14.293-4.693-34.667-18.133-54.507-33.067
	c-31.563-23.776-61.856-51.413-64.853-54.08h-0.107c0,0,20.171,30.293,37.984,63.04c7.349,13.333,14.496,27.52,20.587,41.387
	c5.877,13.227,10.56,26.24,13.227,37.653h-54.091l18.24,46.933c0,0-15.883,8.427-36.053,23.573h106.453
	C410.773,456.45,443.211,384.866,443.211,384.866"/>
<path style="fill:#FF7058;" d="M170.773,439.799l-18.229,46.933c0,0,15.883,8.427,36.043,23.573h41.397
	c-56.651-167.765-42.251-208.64-41.504-212.587c0,0-20.16,30.293-37.973,63.04c-7.36,13.333-14.507,27.52-20.597,41.387
	c-5.856,13.227-10.549,26.24-13.216,37.653H170.773z"/>
<path style="fill:#F1543F;" d="M68.917,384.866h0.107c14.293-4.693,34.667-18.133,54.496-33.067
	c31.573-23.776,61.877-51.413,64.853-54.08h0.107c0,0-20.16,30.293-37.973,63.04c-7.36,13.333-14.507,27.52-20.597,41.387
	c-5.856,13.227-10.56,26.24-13.227,37.653h54.08l-18.229,46.933c0,0,15.883,8.427,36.043,23.573H82.133
	C101.333,456.45,68.917,384.866,68.917,384.866"/>
<g>
</g>
<g>
</g>
<g>
</g>
<g>
</g>
<g>
</g>
<g>
</g>
<g>
</g>
<g>
</g>
<g>
</g>
<g>
</g>
<g>
</g>
<g>
</g>
<g>
</g>
<g>
</g>
<g>
</g>
</svg>
