<?xml version="1.0" encoding="iso-8859-1"?>
<!-- Generator: Adobe Illustrator 19.0.0, SVG Export Plug-In . SVG Version: 6.00 Build 0)  -->
<svg version="1.1" id="Capa_1" xmlns="http://www.w3.org/2000/svg" xmlns:xlink="http://www.w3.org/1999/xlink" x="0px" y="0px"
	 viewBox="0 0 508.064 508.064" style="enable-background:new 0 0 508.064 508.064;" xml:space="preserve">
<path style="fill:#40596B;" d="M508.064,440.843c0-40.309-25.397-76.352-63.253-89.92L333.12,310.699l-0.043,0.043
	c-41.397,48.917-116.789,48.896-158.144-0.043l-111.68,40.224C25.397,364.48,0,400.523,0,440.843v62.315h508.064L508.064,440.843
	L508.064,440.843z"/>
<polygon style="fill:#CDD6E0;" points="209.419,415.008 254.027,347.403 298.709,415.008 254.069,496.405 "/>
<g>
	<path style="fill:#F8B64C;" d="M184.651,307.211c0.853,1.184,0.747,1.184-0.107,0H184.651z"/>
	<path style="fill:#F8B64C;" d="M323.627,307.211c-0.853,1.184-0.96,1.184-0.107,0H323.627z"/>
</g>
<rect id="SVGCleanerId_0" x="323.531" y="307.168" style="fill:#F8B64C;" width="0.011" height="0.011"/>
<g>
	<rect id="SVGCleanerId_0_1_" x="323.531" y="307.168" style="fill:#F8B64C;" width="0.011" height="0.011"/>
</g>
<g>
	<path style="fill:#F8B64C;" d="M184.544,173.088c1.557,17.877-7.104,33.227-19.371,34.315
		c-12.267,1.067-23.477-12.544-25.024-30.421c-1.579-17.877,7.104-33.227,19.349-34.293
		C171.776,141.611,182.965,155.232,184.544,173.088"/>
	<path style="fill:#F8B64C;" d="M368.064,176.981c-1.579,17.856-12.768,31.477-25.045,30.4
		c-12.245-1.067-20.917-16.416-19.349-34.293s12.768-31.477,25.024-30.421C360.96,143.755,369.632,159.115,368.064,176.981"/>
</g>
<path style="fill:#FFD15C;" d="M254.112,23.904c-56.939,0-103.083,46.165-103.083,103.083v30.955c0,7.893,0.48,15.787,1.461,23.605
	v0.043c4.896,40.043,22.144,77.547,49.355,107.339l9.771,10.709c8.981,9.835,21.685,15.456,34.997,15.456h14.933
	c13.312,0,26.016-5.6,34.997-15.435l9.813-10.731c27.232-29.792,44.459-67.339,49.397-107.371c0.981-7.851,1.44-15.712,1.44-23.605
	v-30.965C357.195,70.069,311.029,23.904,254.112,23.904"/>
<path style="fill:#F8B64C;" d="M323.531,307.275v-0.128h0.107v-40.213h-0.021c-5.205,7.691-10.933,15.061-17.248,21.963
	l-9.813,10.752c-8.981,9.835-21.685,15.413-34.997,15.413h-14.933c-13.312,0-26.016-5.6-34.997-15.456l-9.771-10.709
	c-6.293-6.88-12-14.251-17.227-21.92c0,0-0.064-0.021-0.064-0.043v40.213l-9.6,3.52c41.333,48.939,116.747,48.981,158.144,0.064
	l0.043-0.064l-9.504-3.392H323.531L323.531,307.275z"/>
<g style="opacity:0.1;">
	<g>
		<path style="fill:#40596B;" d="M323.531,307.275v-0.128h0.107v-40.213c-0.021,0.021-0.064,0.064-0.085,0.085
			c-5.184,7.648-10.891,14.997-17.184,21.877l-9.813,10.752c-8.981,9.835-21.685,15.413-34.997,15.413h-14.933
			c-13.109,0-25.557-5.461-34.517-15.019h-0.043l47.392,47.061c27.349-1.419,54.251-13.44,73.643-36.373l0.021-0.043v-0.021
			l-9.483-3.392L323.531,307.275L323.531,307.275z"/>
	</g>
</g>
<g>
	<polygon style="fill:#F2F2F2;" points="184.544,307.147 156.587,317.301 209.419,414.987 254.027,347.403 	"/>
	<polygon style="fill:#F2F2F2;" points="323.595,307.147 351.552,317.301 298.709,414.987 254.112,347.403 	"/>
</g>
<polygon style="fill:#FF7058;" points="283.029,391.296 254.027,347.403 225.045,391.296 239.573,405.813 225.045,503.147 
	283.029,503.147 268.501,405.813 "/>
<polygon style="fill:#3DC9AE;" points="383.904,361.088 370.336,324.064 351.531,317.301 254.069,496.405 156.587,317.301 
	137.803,324.064 124.213,361.088 156.587,380.48 124.213,427.488 179.595,503.147 328.544,503.147 383.904,427.488 351.531,380.48 
	"/>
<g>
	<path style="fill:#40596B;" d="M355.147,175.467c0,0-14.037-26.443-16.331-58.645c-2.379-32.96-35.829-54.709-67.371-44.789
		c-0.608,0.192-1.227,0.395-1.856,0.608c-10.016,3.317-21.003,3.339-31.019,0c-0.672-0.213-1.312-0.416-1.963-0.629
		c-31.541-9.877-65.003,11.829-67.349,44.789c-2.293,32.213-16.352,58.667-16.352,58.667c-7.061-24.192-5.664-85.269-5.664-85.269
		C151.509,6.219,254.08,4.907,254.08,4.907s102.496,1.312,106.773,85.291C360.843,90.197,362.24,151.275,355.147,175.467"/>
	<path style="fill:#40596B;" d="M350.901,166.112l-27.019,51.755c-8.587,12.171-26.251,13.227-36.245,2.208l-0.043-0.064
		c-4.395-4.939-10.667-7.755-17.248-7.755l-32.587,0.021c-6.336,0-12.725,2.293-16.768,7.147
		c-9.792,11.776-27.915,10.955-36.672-1.419l-26.453-53.579l-6.624,3.893c0.96,21.877,7.125,64.896,13.483,83.52
		c28.917,84.875,149.813,84.853,178.688-0.043c6.315-18.581,12.245-60.459,13.205-82.293L350.901,166.112z M224.928,258.528
		c0-11.125,9.045-20.149,20.171-20.149h17.899c11.147,0,20.149,9.024,20.149,20.149H224.928z"/>
</g>
<g>
</g>
<g>
</g>
<g>
</g>
<g>
</g>
<g>
</g>
<g>
</g>
<g>
</g>
<g>
</g>
<g>
</g>
<g>
</g>
<g>
</g>
<g>
</g>
<g>
</g>
<g>
</g>
<g>
</g>
</svg>
