<?xml version="1.0" encoding="UTF-8" standalone="no"?>

<svg
   xmlns:dc="http://purl.org/dc/elements/1.1/"
   xmlns:cc="http://creativecommons.org/ns#"
   xmlns:rdf="http://www.w3.org/1999/02/22-rdf-syntax-ns#"
   xmlns:svg="http://www.w3.org/2000/svg"
   xmlns="http://www.w3.org/2000/svg"
   xmlns:sodipodi="http://sodipodi.sourceforge.net/DTD/sodipodi-0.dtd"
   xmlns:inkscape="http://www.inkscape.org/namespaces/inkscape"
   version="1.1"
   id="Capa_1"
   x="0px"
   y="0px"
   viewBox="0 0 512.024 512.024"
   style="enable-background:new 0 0 512.024 512.024;"
   xml:space="preserve"
   inkscape:version="0.91 r13725"
   sodipodi:docname="nurse.svg"><metadata
     id="metadata71"><rdf:RDF><cc:Work
         rdf:about=""><dc:format>image/svg+xml</dc:format><dc:type
           rdf:resource="http://purl.org/dc/dcmitype/StillImage" /></cc:Work></rdf:RDF></metadata><defs
     id="defs69" /><sodipodi:namedview
     pagecolor="#ffffff"
     bordercolor="#666666"
     borderopacity="1"
     objecttolerance="10"
     gridtolerance="10"
     guidetolerance="10"
     inkscape:pageopacity="0"
     inkscape:pageshadow="2"
     inkscape:window-width="1920"
     inkscape:window-height="1171"
     id="namedview67"
     showgrid="false"
     inkscape:zoom="0.92183181"
     inkscape:cx="130.87135"
     inkscape:cy="92.043617"
     inkscape:window-x="0"
     inkscape:window-y="0"
     inkscape:window-maximized="1"
     inkscape:current-layer="Capa_1" /><path
     style="fill:#40596B;"
     d="M447.655,295.672c-73.259,54.581-191.04,54.581-191.04,54.581s-117.728,0-190.997-54.581  c0,0,40.565-17.525,45.792-47.392c0,0-5.227,6.165-31.392,6.165c0,0,32.704-5.141,36.629-89.621c0,0-13.163-161.792,139.979-161.792  c153.205,0,140,161.792,140,161.792c3.936,84.48,36.661,89.621,36.661,89.621c-26.165,0-31.392-6.165-31.392-6.165  C407.089,278.147,447.655,295.672,447.655,295.672"
     id="path3" /><rect
     x="251.068"
     y="306.595"
     style="fill:#FFD15C;"
     width="0.043"
     height="0.064"
     id="rect5" /><path
     style="fill:#ffd39c;fill-opacity:1"
     d="M359.708,313.251c-0.117,4.48-1.077,9.088-3.2,13.461c-19.328,38.293-57.813,61.963-100.48,61.963  c-42.667-0.107-81.184-23.776-100.373-61.856c-2.144-4.373-3.211-8.96-3.317-13.557c4.917-0.533,9.813-0.853,14.837-0.853h17.504  v-31.147c32.213,41.589,72,45.653,72,45.653s39.349-3.957,71.563-45.024v30.496h16.736  C350.023,312.397,354.908,312.728,359.708,313.251"
     id="path7" /><path
     style="fill:#F2F2F2;"
     d="M256.028,388.675c-20.267-0.043-39.541-5.557-56.309-15.275  c5.024,10.037,11.211,19.563,18.475,28.288c33.045,39.648,37.333,81.109,37.835,94.272c0.501-13.141,4.768-54.624,37.813-94.272  c7.285-8.704,13.451-18.187,18.443-28.192C295.505,383.192,276.263,388.675,256.028,388.675"
     id="path9" /><g
     style="opacity:0.1;"
     id="g11"><g
       id="g13"><path
         style="fill:#40596B;"
         d="M359.676,313.251c-4.8-0.523-9.696-0.853-14.731-0.853h-16.736v-30.496    c-32.224,41.067-71.563,45.024-71.563,45.024s-14.165-1.504-32.395-11.477c-0.107-0.064-0.224-0.085-0.331-0.128l-0.352,0.107    l67.477,67.499c27.936-9.109,51.627-28.853,65.44-56.213C358.588,322.339,359.548,317.731,359.676,313.251"
         id="path15" /></g></g><path
     style="fill:#4CDBC4;"
     d="M420.86,373.315c-25.397-62.752-98.603-96.192-98.603-96.192c3.776,17.216,4.597,32.875,3.723,46.624  c-1.867,28.757-13.664,55.797-32.117,77.941c-33.067,39.669-37.333,81.109-37.835,94.272c-0.501-13.141-4.789-54.603-37.835-94.272  c-18.443-22.123-30.251-49.163-32.107-77.941c-0.875-13.749-0.085-29.408,3.712-46.624c0,0-73.205,33.44-98.603,96.192  c0,0,41.835-32.853,71.712-22.421l-22.421,68.715c0,0,83.083,17.909,115.477,80.48l0.064,0.117c0.021,0.021,0.064-0.117,0.064-0.117  c32.395-62.571,115.456-80.48,115.456-80.48l-22.411-68.715C379.025,340.461,420.86,373.315,420.86,373.315"
     id="path17" /><path
     style="fill:#F2F2F2;"
     d="M492.327,512.024H19.697l8.747-82.667c8.107-47.563,39.584-86.08,81.504-104.651  c6.933-3.189,14.187-5.557,21.643-7.456c-15.893,14.731-31.253,33.504-40.416,56.107c0,0,41.813-32.96,71.787-22.496l-22.517,68.789  c0,0,83.104,17.92,115.52,80.437l0.107,0.107v-0.107c32.437-62.517,115.52-80.437,115.52-80.437l-22.485-68.789  c29.973-10.453,71.776,22.496,71.776,22.496c-9.173-22.603-24.555-41.376-40.437-56.213c7.701,2.123,15.264,4.587,22.411,7.893  c41.504,18.667,72.651,57.067,80.736,104.299L492.327,512.024z"
     id="path19" /><rect
     x="256.337"
     y="180.056"
     style="fill:#FFD15C;"
     width="0.043"
     height="0.064"
     id="rect21" /><g
     id="g23"><path
       style="fill:#ffc587;fill-opacity:1"
       d="M165.319,173.859c4.224,18.144,1.984,34.187-5.003,35.787c-6.976,1.643-16.085-11.755-20.309-29.899   c-4.245-18.144-2.016-34.187,4.981-35.808C151.985,142.317,161.073,155.715,165.319,173.859"
       id="path25" /><path
       style="fill:#ffc587;fill-opacity:1"
       d="M347.217,173.859c-4.224,18.144-1.995,34.187,5.013,35.787c6.965,1.643,14.859-12.085,20.299-29.899   c3.285-10.624,1.771-32.352-4.981-35.808C361.137,140.675,351.463,155.715,347.217,173.859"
       id="path27" /></g><path
     style="fill:#ffcf91;fill-opacity:1"
     d="M356.444,226.605c-29.397,93.227-99.808,100.309-99.808,100.309s-70.421-7.083-99.808-100.309  c0,0-15.712-48.651-2.539-89.184c0,0,8.085-69.163,102.357-69.163c94.261,0,102.325,69.163,102.325,69.163  C372.188,177.965,356.444,226.605,356.444,226.605"
     id="path29" /><path
     style="fill:#40596B;"
     d="M300.551,28.771h-93.6c-28.171,0-52.853,18.88-60.245,46.059l-7.648,41.227l-6.101,25.205  l16.085,14.4c0,0,36.608-18.208,54.912-35.787c0,0,2.293,11.456-14.496,22.144c0,0,27.477-3.04,50.4-22.144  c0,0-2.293,12.224-23.669,22.912c0,0,62.603,6.88,103.829-37.419c0,0,8.523,39.851,42.88,49.024l17.472-15.413l-18.347-60.309  l-1.685-5.557C352.327,46.776,328.071,28.771,300.551,28.771"
     id="path31" /><path
     style="fill:#F2F2F2;"
     d="M335.527,94.04c-47.893-31.435-109.899-31.435-157.771,0c-12.896-19.627-25.792-39.253-38.688-58.88  c71.371-46.88,163.776-46.88,235.125,0C361.297,54.797,348.423,74.424,335.527,94.04"
     id="path33" /><polygon
     style="fill:#e93d1d;fill-opacity:1"
     points="279.825,30.232 263.569,30.232 263.569,13.987 249.692,13.987 249.692,30.232   233.425,30.232 233.425,44.131 249.692,44.131 249.692,60.376 263.569,60.376 263.569,44.131 279.825,44.131 "
     id="polygon35" /><g
     id="g37" /><g
     id="g39" /><g
     id="g41" /><g
     id="g43" /><g
     id="g45" /><g
     id="g47" /><g
     id="g49" /><g
     id="g51" /><g
     id="g53" /><g
     id="g55" /><g
     id="g57" /><g
     id="g59" /><g
     id="g61" /><g
     id="g63" /><g
     id="g65" /></svg>
