<?xml version="1.0" encoding="iso-8859-1"?>
<!-- Generator: Adobe Illustrator 19.0.0, SVG Export Plug-In . SVG Version: 6.00 Build 0)  -->
<svg version="1.1" id="Capa_1" xmlns="http://www.w3.org/2000/svg" xmlns:xlink="http://www.w3.org/1999/xlink" x="0px" y="0px"
	 viewBox="0 0 512 512" style="enable-background:new 0 0 512 512;" xml:space="preserve">
<g>
	<path style="fill:#F8B64C;" d="M180.341,337.38v-0.043l0.032,0.021h0.011v0.021c37.899,50.187,113.291,50.187,151.211,0
		l0.021-0.043v0.043v-55.392H180.299v55.392L180.341,337.38L180.341,337.38z"/>
	<path style="fill:#F8B64C;" d="M181.131,193.636c1.685,19.147-7.605,35.605-20.736,36.736
		c-13.141,1.163-25.152-13.44-26.827-32.587c-1.685-19.147,7.605-35.584,20.747-36.747
		C167.445,159.897,179.467,174.489,181.131,193.636"/>
	<path style="fill:#F8B64C;" d="M378.539,197.796c-1.675,19.147-13.685,33.749-26.837,32.597
		c-13.12-1.131-22.432-17.589-20.747-36.747c1.664-19.147,13.685-33.739,26.837-32.587
		C370.912,162.191,380.224,178.649,378.539,197.796"/>
</g>
<path style="fill:#FFD15C;" d="M366.496,134.5v36.267c0,1.163,0,2.347-0.107,3.52c0,0.64,0,1.387-0.117,2.016
	c-0.117,5.877-0.533,11.627-1.28,17.397c-1.6,12.587-4.267,24.96-8,36.896c-9.067,28.917-24.309,55.584-44.907,78.069l-10.549,11.52
	c-9.589,10.56-23.264,16.544-37.557,16.544h-16c-14.187,0-27.84-6.069-37.451-16.544l-10.443-11.52
	c-14.613-15.883-26.549-34.005-35.403-53.333c-8.971-19.413-14.933-40.213-17.504-61.643c-0.747-5.664-1.163-11.52-1.28-17.291
	v-1.141c0-0.107-0.107-0.107-0.107-0.213c-0.117-1.397-0.117-2.891-0.117-4.267c-0.107-0.853-0.107-1.6-0.107-2.453v-33.173
	c0-6.187,0.544-12.267,1.6-18.251c0.651-4.16,1.504-8.107,2.667-12.043c13.12-46.187,55.691-80.117,106.24-80.117
	c50.443,0,93.024,33.931,106.133,80.117c1.152,3.936,2.123,7.883,2.773,12.043C365.984,122.671,366.496,128.527,366.496,134.5"/>
<g style="opacity:0.1;">
	<g>
		<path style="fill:#40596B;" d="M312.128,308.676l-10.56,11.52c-9.6,10.549-23.264,16.523-37.557,16.523h-16
			c-6.901,0-13.653-1.493-19.904-4.171l52.619,39.083c19.243-5.141,37.109-16.331,50.443-33.749c0.16-0.192,0.277-0.352,0.427-0.544
			l0.032-54.133C325.717,292.1,319.349,300.708,312.128,308.676"/>
	</g>
</g>
<path style="fill:#40596B;" d="M512,431.353v77.003H0v-77.003c0-20.373,12.48-38.731,31.467-46.08l97.387-38.293l10.549-4.171
	l84.267,92.587l26.453-53.856v-0.128l5.867-12.053l5.973,12.053l26.453,53.984l84.171-92.587l10.336,4.064l0.224,0.107
	l97.504,38.293C499.52,392.729,512,410.98,512,431.353"/>
<g>
	<polygon style="fill:#CDD6E0;" points="372.587,342.82 293.867,446.063 256,369.38 265.696,363.94 331.509,326.82 331.627,326.82 
		331.733,326.713 	"/>
	<polygon style="fill:#CDD6E0;" points="139.403,342.82 218.24,446.063 256,369.38 246.293,363.94 180.48,326.82 180.256,326.713 	
		"/>
</g>
<polygon style="fill:#334A5E;" points="218.24,508.367 239.776,459.3 230.507,445.647 223.68,435.396 250.133,381.444 256,369.38 
	261.984,381.444 261.984,381.551 288.427,435.396 281.504,445.551 272.224,459.3 293.867,508.367 "/>
<polygon style="fill:#2A4356;" points="288.427,435.396 281.504,445.551 256.107,393.583 230.507,445.647 223.68,435.396 
	250.133,381.433 256,369.38 261.984,381.433 261.984,381.551 "/>
<path style="fill:#F2F2F2;" d="M413.877,495.044c0,0-6.005,0.832-6.336,2.709c0-1.877-6.357-2.709-6.357-2.709
	c-25.525-1.355-19.339-25.525-19.339-25.525c7.029-9.248,0-19.851,0-19.851l10.101-10.816c8.053,8.224,15.595,0,15.595,0
	s7.712,8.224,15.584,0l10.08,10.816c0,0-6.997,10.603,0,19.851C433.205,469.529,439.392,493.689,413.877,495.044"/>
<polygon style="fill:#40596B;" points="407.531,450.041 411.659,462.724 424.992,462.724 414.197,470.564 418.325,483.236 
	407.531,475.396 396.747,483.236 400.864,470.564 390.08,462.724 403.413,462.724 "/>
<g style="opacity:0.1;">
	<g>
		<path style="fill:#40596B;" d="M145.589,162.607v5.707c0,0.853,0,1.6,0.107,2.453c0,1.387,0,2.88,0.117,4.267
			c0,0.107,0.107,0.107,0.107,0.213v1.163c18.443,7.691,40.853,11.637,55.893,11.637h108.48c15.04,0,37.557-3.947,56-11.744
			c0.107-0.64,0.107-1.376,0.107-2.016c0.128-1.163,0.128-2.357,0.128-3.52v-8.171L145.589,162.607L145.589,162.607z"/>
	</g>
</g>
<path style="fill:#334A5E;" d="M383.339,127.609c5.291,12.917,0.192,27.819-12.043,34.549
	c-17.205,9.493-43.317,15.243-61.024,15.243H201.845c-17.717,0-43.808-5.749-61.024-15.243
	c-12.224-6.731-17.355-21.632-12.021-34.549H383.339z"/>
<path style="fill:#40596B;" d="M384.224,130.127c-84.917,13.44-171.413,13.44-256.331,0c0.747-4.587,1.504-9.163,2.251-13.749
	c0.416-2.667,0.853-5.333,1.269-8c0.747-5.024,1.6-10.037,2.357-15.04c81.067,12.789,163.627,12.789,244.683,0
	c0.736,5.003,1.589,10.016,2.357,15.04c0.416,2.667,0.853,5.333,1.269,8C382.837,120.964,383.467,125.551,384.224,130.127"/>
<path style="fill:#334A5E;" d="M384.981,37.071L261.504,4.335c-3.563-0.939-7.339-0.939-10.912,0.021L127.179,37.071
	c-14.891,3.936-20.821,21.877-11.221,33.92l17.664,22.144l0.149,0.245c0-0.021,0-0.032,0-0.043
	c81.056,12.789,163.584,12.789,244.661,0l0.128-0.213l17.643-22.144C405.803,58.937,399.851,41.007,384.981,37.071"/>
<g>
	<path style="fill:#CDD6E0;" d="M382.059,116.377c-83.52,12.256-168.299,12.256-251.925,0c0.416-2.667,0.853-5.333,1.269-8
		c82.773,12.043,166.731,12.043,249.397,0C381.205,111.044,381.643,113.711,382.059,116.377"/>
	<path style="fill:#CDD6E0;" d="M262.421,82.564c0,0-6.005,0.832-6.347,2.709c0-1.877-6.336-2.709-6.336-2.709
		c-25.536-1.355-19.36-25.525-19.36-25.525c7.029-9.248,0-19.851,0-19.851l10.112-10.805c8.043,8.224,15.584,0,15.584,0
		s7.701,8.224,15.584,0l10.101,10.805c0,0-7.019,10.603,0,19.851C281.76,57.049,287.925,81.209,262.421,82.564"/>
</g>
<polygon style="fill:#334A5E;" points="256.075,37.561 260.192,50.244 273.525,50.244 262.741,58.084 266.859,70.756 
	256.075,62.916 245.28,70.756 249.408,58.084 238.613,50.244 251.947,50.244 "/>
<g>
</g>
<g>
</g>
<g>
</g>
<g>
</g>
<g>
</g>
<g>
</g>
<g>
</g>
<g>
</g>
<g>
</g>
<g>
</g>
<g>
</g>
<g>
</g>
<g>
</g>
<g>
</g>
<g>
</g>
</svg>
