<?xml version="1.0" encoding="iso-8859-1"?>
<!-- Generator: Adobe Illustrator 19.0.0, SVG Export Plug-In . SVG Version: 6.00 Build 0)  -->
<svg version="1.1" id="Capa_1" xmlns="http://www.w3.org/2000/svg" xmlns:xlink="http://www.w3.org/1999/xlink" x="0px" y="0px"
	 viewBox="0 0 512.341 512.341" style="enable-background:new 0 0 512.341 512.341;" xml:space="preserve">
<path style="fill:#40596B;" d="M438.987,321.525c0,0-75.712,57.291-182.368,30.773c-106.656,26.517-182.336-30.773-182.336-30.773
	c31.595-15.691,45.419-51.893,45.835-53.024c-18.347,14.816-35.509,9.525-35.509,9.525c42.443-21.227,42.443-140.021,42.443-140.021
	C125.867,8.523,256.619,0,256.619,0s130.763,8.523,129.611,138.005c0,0,0,118.795,42.443,140.021c0,0-17.205,5.291-35.541-9.525
	C393.547,269.632,407.381,305.835,438.987,321.525"/>
<path style="fill:#F2F2F2;" d="M495.691,512.341H16.651l11.84-81.109c7.04-40.747,31.04-74.773,64-95.477
	c9.589-6.059,19.947-10.976,30.827-14.496c9.92-3.317,20.267-5.44,31.04-6.4c4.267-0.437,8.544-0.651,12.907-0.651h177.707
	c15.264,0,30.069,2.453,43.947,7.04c10.88,3.52,21.227,8.437,30.837,14.496c32.96,20.704,56.96,54.731,64,95.477L495.691,512.341z"
	/>
<rect x="256.021" y="359.285" style="fill:#FFD15C;" width="0.043" height="0.064"/>
<path style="fill:#FF7058;" d="M344.971,314.208H167.264c-4.363,0-8.64,0.213-12.907,0.651c-10.443,0.917-20.469,3.019-30.101,6.144
	l68.224,191.339h127.403l68.213-191.317C374.464,316.608,359.925,314.208,344.971,314.208"/>
<g>
	<path style="fill:#FFD15C;" d="M255.861,332.565c3.403,0,6.709-0.331,9.92-0.853c-1.6,0.309-3.317,0.523-4.907,0.747
		c-1.6,0.107-3.307,0.213-4.907,0.213h-0.213c-1.824,0-3.744-0.107-5.557-0.331l-0.117-0.107c0.331,0,0.747,0.107,1.077,0.107
		c0.736,0.128,1.387,0.224,2.133,0.128C254.155,332.565,255.008,332.565,255.861,332.565"/>
	<path style="fill:#FFD15C;" d="M265.771,331.712c3.317-0.651,6.4-1.504,9.6-2.56c-1.931,0.651-3.84,1.269-5.771,1.813
		C268.341,331.275,267.051,331.605,265.771,331.712"/>
	<path style="fill:#FFD15C;" d="M280.48,327.008c3.125-1.355,6.165-3.019,9.077-4.896
		C286.624,324.064,283.563,325.632,280.48,327.008"/>
	<path style="fill:#FFD15C;" d="M275.584,329.045c1.643-0.565,3.275-1.312,4.907-2.037c-0.075,0.043-0.139,0.085-0.224,0.128
		C278.677,327.861,277.195,328.501,275.584,329.045"/>
	<path style="fill:#FFD15C;" d="M311.893,302.667c0.032-0.043,0.064-0.064,0.085-0.107l-0.011,0.021c-1.6,1.92-3.2,3.627-4.907,5.44
		c-5.557,5.664-11.403,10.357-17.493,14.08c2.976-1.813,5.973-3.936,8.853-6.4c2.88-2.357,5.749-4.917,8.533-7.691
		C308.629,306.336,310.315,304.544,311.893,302.667"/>
	<path style="fill:#FFD15C;" d="M326.464,283.925c-4.437,6.88-9.355,12.981-14.475,18.645c1.685-1.813,3.296-3.829,4.885-5.856
		c1.387-1.579,2.667-3.296,3.947-5.109c1.813-2.453,3.627-5.024,5.333-7.691c0.107-0.107,0.213-0.107,0.309-0.213V283.925z"/>
</g>
<g>
	<path style="fill:#F8B64C;" d="M167.019,183.317c4.16,17.835,1.973,33.6-4.907,35.211s-15.808-11.563-19.979-29.397
		c-4.16-17.835-1.963-33.6,4.907-35.211C153.909,152.309,162.859,165.483,167.019,183.317"/>
	<path style="fill:#F8B64C;" d="M345.803,183.317c-4.16,17.835-1.973,33.6,4.907,35.211s14.603-11.893,19.979-29.397
		c3.211-10.453,1.728-31.808-4.907-35.211C359.509,150.731,349.963,165.483,345.803,183.317"/>
</g>
<g>
	<path style="fill:#F2F2F2;" d="M256.213,350.379v8.416c-7.691,10.667-20.053,17.6-34.133,17.6c-23.253,0-41.92-18.667-41.92-41.92
		c0-7.584,2.027-14.624,5.44-20.608v0.224C201.376,335.957,227.083,350.379,256.213,350.379"/>
	<path style="fill:#F2F2F2;" d="M332.16,334.485c0,23.253-18.667,41.92-41.931,41.92c-14.069,0-26.443-6.933-34.016-17.6v-8.416
		c29.12,0,54.837-14.421,70.613-36.373C330.133,319.957,332.16,327.008,332.16,334.485"/>
</g>
<g>
	<path style="fill:#F1543F;" d="M265.877,393.547c0,5.355-4.352,9.707-9.707,9.707c-5.365,0-9.707-4.352-9.707-9.707
		c0-5.376,4.341-9.707,9.707-9.707C261.525,383.84,265.877,388.171,265.877,393.547"/>
	<path style="fill:#F1543F;" d="M265.877,426.133c0,5.376-4.352,9.707-9.707,9.707c-5.365,0-9.707-4.331-9.707-9.707
		c0-5.355,4.341-9.707,9.707-9.707C261.525,416.416,265.877,420.779,265.877,426.133"/>
	<path style="fill:#F1543F;" d="M265.877,458.709c0,5.376-4.352,9.707-9.707,9.707c-5.365,0-9.707-4.331-9.707-9.707
		c0-5.355,4.341-9.685,9.707-9.685C261.525,449.024,265.877,453.355,265.877,458.709"/>
	<path style="fill:#F1543F;" d="M265.877,491.317c0,5.355-4.352,9.707-9.707,9.707c-5.365,0-9.707-4.352-9.707-9.707
		c0-5.376,4.341-9.707,9.707-9.707C261.525,481.611,265.877,485.941,265.877,491.317"/>
</g>
<path style="fill:#FFD15C;" d="M364.48,160.395c-0.224,2.336-0.32,4.587-0.224,6.496c-3.52,76.587-50.24,155.957-107.627,156.171
	c-57.387-0.213-104.224-79.584-107.627-156.171c0.107-1.92,0-4.171-0.224-6.496c0.853-8,2.773-16.437,7.04-20.373
	c0,0,89.6-42.773,100.8-58.144c11.2,15.371,100.8,58.144,100.8,58.144C361.717,143.957,363.627,152.395,364.48,160.395"/>
<path id="SVGCleanerId_0" style="fill:#F8B64C;" d="M256.64,323.061c-27.381-0.107-52.277-18.336-71.285-45.557
	c0.021,10.101,0.117,32.875,0.203,36.544c15.797,21.963,41.515,36.288,70.613,36.288c29.099,0,54.816-14.336,70.624-36.288
	c0.075-3.52,0.16-24.672,0.192-35.296C308.107,305.291,283.584,322.965,256.64,323.061"/>
<path style="fill:#40596B;" d="M314.475,147.904H289.76c-12.192,0-22.443,7.851-26.251,18.752c-2.475-0.437-5.003-0.747-7.563-0.747
	c-2.101,0-4.171,0.288-6.208,0.608c-3.851-10.816-14.069-18.603-26.208-18.603h-24.725c-15.424,0-27.925,12.501-27.925,27.915
	c0,15.435,12.501,27.957,27.936,27.957h24.715c15.413,0,27.915-12.523,27.915-27.936v-0.021c0-0.651-0.149-1.248-0.192-1.92
	c3.584-0.501,7.2-0.48,10.752,0.128c-0.032,0.608-0.192,1.184-0.192,1.792c0,15.435,12.523,27.957,27.957,27.957h24.693
	c15.424,0,27.936-12.523,27.936-27.936v-0.021C342.411,160.395,329.899,147.904,314.475,147.904 M223.509,195.776h-24.693
	c-10.987,0-19.936-8.96-19.936-19.936c0-10.976,8.939-19.936,19.925-19.936h24.704c10.997,0,19.936,8.96,19.936,19.936
	C243.445,186.816,234.507,195.776,223.509,195.776 M314.475,195.776h-24.704c-10.997,0-19.957-8.96-19.957-19.936
	c0-10.976,8.939-19.936,19.936-19.936h24.715c10.987,0,19.925,8.96,19.925,19.936C334.389,186.816,325.461,195.776,314.475,195.776"
	/>
<g style="opacity:0.1;">
	<g>
		<path style="fill:#40596B;" d="M256.64,323.061c-17.749-0.064-34.432-7.829-49.152-20.651l-0.107,0.149l47.712,47.712
			c0.373,0,0.715,0.064,1.088,0.064c29.109,0,54.816-14.336,70.624-36.288c0.075-3.52,0.16-24.672,0.192-35.296
			C308.107,305.291,283.584,322.965,256.64,323.061"/>
	</g>
</g>
<g>
	<path id="SVGCleanerId_0_1_" style="fill:#F8B64C;" d="M256.64,323.061c-27.381-0.107-52.277-18.336-71.285-45.557
		c0.021,10.101,0.117,32.875,0.203,36.544c15.797,21.963,41.515,36.288,70.613,36.288c29.099,0,54.816-14.336,70.624-36.288
		c0.075-3.52,0.16-24.672,0.192-35.296C308.107,305.291,283.584,322.965,256.64,323.061"/>
</g>
<g>
</g>
<g>
</g>
<g>
</g>
<g>
</g>
<g>
</g>
<g>
</g>
<g>
</g>
<g>
</g>
<g>
</g>
<g>
</g>
<g>
</g>
<g>
</g>
<g>
</g>
<g>
</g>
<g>
</g>
</svg>
