<?xml version="1.0" encoding="iso-8859-1"?>
<!-- Generator: Adobe Illustrator 19.0.0, SVG Export Plug-In . SVG Version: 6.00 Build 0)  -->
<svg version="1.1" id="Capa_1" xmlns="http://www.w3.org/2000/svg" xmlns:xlink="http://www.w3.org/1999/xlink" x="0px" y="0px"
	 viewBox="0 0 512 512" style="enable-background:new 0 0 512 512;" xml:space="preserve">
<path style="fill:#40596B;" d="M446.784,326.955l-121.067-43.627h-0.107l-0.107,0.107h-138.88l-0.128-0.107h-0.107L65.227,326.955
	c-37.877,13.547-63.253,49.6-63.253,89.92V512h508.043v-95.125C510.027,376.565,484.661,340.501,446.784,326.955"/>
<g>
	<path style="fill:#ACB3BA;" d="M256.235,321.504c-0.117,0.117-0.224,0.117-0.224,0.117v-0.245
		C256.117,321.376,256.235,321.504,256.235,321.504"/>
	<path style="fill:#ACB3BA;" d="M256.235,321.397v0.213c0,0-0.128,0-0.224-0.107C256.011,321.504,256.117,321.397,256.235,321.397"
		/>
</g>
<g>
	<path style="fill:#CDD6E0;" d="M325.515,283.435l-69.44,178.603l-69.44-178.603h0.107c0.309,0.437,0.523,0.629,0.523,0.629
		s138.251-0.629,137.6,0C324.864,284.149,325.077,283.872,325.515,283.435"/>
	<path style="fill:#CDD6E0;" d="M325.515,283.413l-31.787,81.813l-37.643,96.853l-37.664-97.067l-31.776-81.6h0.107
		c0.309,0.437,0.523,0.651,0.523,0.651h15.893c26.667-0.213,79.893-0.309,106.144-0.213c9.483,0,15.563,0.107,15.563,0.213
		C324.971,284.064,325.173,283.755,325.515,283.413"/>
</g>
<g>
	<path style="fill:#F8B64C;" d="M186.677,283.317c0.853,1.163,0.747,1.163-0.107,0H186.677z"/>
	<path style="fill:#F8B64C;" d="M325.653,283.317c-0.853,1.163-0.96,1.163-0.107,0H325.653z"/>
	<path style="fill:#F8B64C;" d="M186.549,149.184c1.579,17.856-7.104,33.227-19.349,34.293
		c-12.267,1.088-23.477-12.544-25.045-30.421c-1.557-17.856,7.104-33.227,19.371-34.293
		C173.781,117.685,184.992,131.317,186.549,149.184"/>
	<path style="fill:#F8B64C;" d="M370.091,153.067c-1.579,17.877-12.768,31.499-25.045,30.421
		c-12.245-1.067-20.939-16.437-19.349-34.293c1.547-17.877,12.747-31.499,25.024-30.421
		C362.987,119.829,371.659,135.211,370.091,153.067"/>
</g>
<path style="fill:#FFD15C;" d="M256.117,0C199.2,0,153.035,46.144,153.035,103.083v30.955c0,7.872,0.501,15.776,1.483,23.605v0.021
	c4.896,40.043,22.123,77.557,49.355,107.339l9.771,10.709c8.981,9.856,21.664,15.456,34.997,15.456h14.933
	c13.312,0,26.016-5.6,34.997-15.435l9.813-10.731c27.211-29.771,44.459-67.339,49.397-107.349
	c0.981-7.872,1.419-15.733,1.419-23.605v-30.965C359.2,46.144,313.056,0,256.117,0z"/>
<path style="fill:#F8B64C;" d="M308.384,264.96l-9.813,10.795c-8.981,9.856-21.685,15.456-35.019,15.456h-14.891
	c-13.312,0-26.016-5.6-34.997-15.456l-9.813-10.795c-6.293-6.912-12.064-14.293-17.269-21.963v40.309
	c37.771,39.755,101.109,39.787,138.955,0.149l0.128-0.149v-40.309C320.427,250.667,314.677,258.144,308.384,264.96"/>
<g style="opacity:0.1;">
	<g>
		<path style="fill:#40596B;" d="M308.384,264.96l-9.813,10.795c-8.96,9.813-21.664,15.456-34.997,15.456H248.64
			c-12.373,0-24.085-5.045-32.875-13.6l-0.213,0.085l40.416,35.477c0,0,39.787,2.421,69.685-29.856v-40.309
			C320.427,250.667,314.677,258.144,308.384,264.96"/>
	</g>
</g>
<g>
	<path style="fill:#CDD6E0;" d="M510.027,416.853V512h-67.936c9.707-27.189-8.651-81.269-8.651-81.269
		c-25.6-59.829-19.627-94.624-11.317-112.651l24.651,8.853C484.661,340.48,510.027,376.544,510.027,416.853"/>
	<path style="fill:#CDD6E0;" d="M78.571,430.731c0,0-18.357,54.08-8.651,81.269H1.995v-95.147c0-40.309,25.376-76.373,63.253-89.92
		l24.651-8.853C98.197,336.107,104.181,370.891,78.571,430.731"/>
	<path style="fill:#CDD6E0;" d="M152.971,129.248c0,0-1.312-40.085,24.192-60.373c0,0,17.248-15.733,10.016-42.421
		c0,0-18.357-6.496-36.459,28.587c-4.587,8.875-6.08,18.997-5.621,28.981C145.888,100.267,137.237,124.875,152.971,129.248"/>
	<path style="fill:#CDD6E0;" d="M359.243,129.248c0,0,1.312-40.085-24.192-60.373c0,0-17.248-15.733-10.016-42.421
		c0,0,18.357-6.496,36.459,28.587c4.587,8.875,6.08,18.997,5.621,28.981C366.325,100.267,374.965,124.875,359.243,129.248"/>
</g>
<path style="fill:#FF7058;" d="M315.243,103.04h-27.808c-11.211,0-20.523,7.712-23.168,18.08c-5.333-1.397-10.955-1.397-16.267,0
	c-2.656-10.368-11.989-18.08-23.179-18.08h-27.808c-20.939,0-37.92,16.96-37.92,37.899c0,20.917,16.981,37.899,37.92,37.899
	c27.339,0,49.483-21.227,51.413-48.085c4.917-1.835,10.475-1.835,15.392,0c1.941,26.859,24.085,48.085,51.413,48.085
	c20.939,0,37.899-16.981,37.899-37.899C353.131,120,336.181,103.04,315.243,103.04 M196.992,170.997
	c-16.565,0-30.059-13.504-30.059-30.059c0-16.587,13.504-30.08,30.059-30.08h27.829c8.896,0,16.149,7.275,16.149,16.171
	C240.971,151.275,221.237,170.997,196.992,170.997 M315.243,170.997c-24.245,0-43.957-19.733-43.957-43.979
	c0-8.896,7.232-16.171,16.149-16.171h27.808c16.587,0,30.059,13.504,30.059,30.08S331.819,170.997,315.243,170.997"/>
<path style="fill:#40596B;" d="M297.344,221.141h-82.453c0-2.453,1.397-4.587,3.52-5.547l27.104-17.184
	c3.317-1.483,6.933-2.336,10.56-2.336c3.733,0,7.349,0.853,10.667,2.336l27.083,17.184
	C295.968,216.565,297.344,218.688,297.344,221.141"/>
<g>
	<path style="fill:#F2F2F2;" d="M255.968,313.163l-62.624,61.579l-21.547-86.187l14.709-5.227
		c18.667,19.52,43.52,29.547,68.373,29.877L255.968,313.163z"/>
	<path style="fill:#F2F2F2;" d="M340.32,288.565l-21.643,86.187l-62.688-61.579l1.248,0.043
		c24.853-0.331,49.707-10.251,68.267-29.771l0.107-0.107L340.32,288.565z"/>
</g>
<polygon style="fill:#C3D1DD;" points="255.968,313.163 214.197,354.229 218.411,365.024 255.947,328.107 293.717,365.227 
	297.952,354.379 "/>
<g>
</g>
<g>
</g>
<g>
</g>
<g>
</g>
<g>
</g>
<g>
</g>
<g>
</g>
<g>
</g>
<g>
</g>
<g>
</g>
<g>
</g>
<g>
</g>
<g>
</g>
<g>
</g>
<g>
</g>
</svg>
