<svg xmlns="http://www.w3.org/2000/svg" viewBox="0 0 28.09 28.09"><path d="M9.72 20.67l-1.1-1.78-2.31.42 3.04-5.39H3.43v14.17h10.09V13.92zM26.33 7.16h-6.7c.39-.2.74-.41 1.05-.64 1.2-.85 1.82-1.93 1.82-3 0-.89-.41-2.15-1.02-2.68A3.45 3.45 0 0 0 19.21 0a4.5 4.5 0 0 0-2.5.8c-1.1.74-1.96 2.33-2.58 3.55l-.09.18c-.22-.47-.48-1.4-.78-1.84A7.26 7.26 0 0 0 11.38.8a4.48 4.48 0 0 0-2.5-.8 3.5 3.5 0 0 0-2.37.98 4.49 4.49 0 0 0-1.07 2.84c0 .55.16 1.12.49 1.65a4.96 4.96 0 0 0 1.99 1.69H1.74l.02 5.63h11.59V7.17h1.4v5.63h11.6l-.02-5.63zM8.32 5.4c-.47-.3-.76-.6-.92-.86a2.13 2.13 0 0 1-.22-.95c0-.38.18-1.04.52-1.35.33-.32.77-.51 1.17-.51h.01c.52 0 1.03.18 1.54.52.77.5 1.49 1.87 1.99 2.88.26.51.46 1.05.6 1.57-2.32-.24-3.82-.75-4.7-1.3zm7.93-1.23c.42-.6.9-1.58 1.42-1.92a2.8 2.8 0 0 1 1.54-.52c.43 0 .85.17 1.13.42.28.25.43.71.43 1.04 0 .38-.2 1.27-1.1 1.93-.86.62-2.34 1.26-4.62 1.7.22-.9.64-1.86 1.2-2.65zm5.54 15.12l-2.31-.4-1.09 1.8-3.75-6.68v14.08h10.04V13.92h-5.92z" fill="#FFF"/></svg>