<svg version="1" xmlns="http://www.w3.org/2000/svg" width="682.667" height="682.667" viewBox="0 0 512.000000 512.000000"><path d="M239 1.1c-32.6 4.2-69.9 21.8-87.9 41.5-18.3 20-24.4 40.8-24.5 82.9-.1 17.4.2 21.4 2.2 30.5 2.5 11.2 8.4 25 12.4 28.7l2.3 2.2.1-17.7c0-9.7.4-21.5.8-26.2l.7-8.6 8.8 2.2c24.4 6.2 62.2 5.7 89.1-1.1 26.1-6.5 48.8-18.1 61.2-31 2.3-2.5 4.3-4.4 4.4-4.2.5.5-3.5 19.3-5.1 23.7-2 5.7-6.1 12.7-9.4 16.4l-2.6 2.8 3.5-.7c1.9-.3 8.6-2.2 14.9-4.1 22-6.8 39.3-17.2 48.3-29.1 4.5-6 4.7-6.1 5.2-3.5 2.1 11.1 4.6 45.6 4.6 64.3 0 7.1.4 12.9.8 12.9 1 0 4.9-7.8 7.2-14.7 3.2-8.9 4.3-22.9 3.7-44.6-.5-20.8-2-31.6-5.9-43.7-6.1-19.1-14.3-28.1-27.8-30.4-3-.6-4.2-1.8-8.8-8.6-9.4-13.9-24.8-27.4-37.4-32.9-15.1-6.4-41.4-9.5-60.8-7zM177.5 325.6c-17.2 13.9-17.8 14.3-26.1 16.4-4.3 1-15.8 3.5-25.5 5.4-25.6 5-42 9.2-53.4 13.7-24.2 9.4-40.2 24-46.6 42.6-2.7 7.8-6.7 23.9-8.5 33.8-1.5 8.6-4.4 38.1-4.4 45.6v4.6l18.3 3.1C78.2 498.9 136.5 506 180 509c8.5.5 22.3 1.5 30.5 2 16.1 1.1 68.1 1.1 88.5-.1 60.6-3.5 132.7-11.5 188.7-21.1l12.2-2.1-.5-4.6c-.2-2.5-.9-10.9-1.4-18.6-2-26-8-53.8-14.5-67.1-6.8-13.8-17.1-23.7-33.5-31.9-14.8-7.4-26.3-10.7-67.5-19.1-31.5-6.5-30.1-5.9-44.9-17.4-7.1-5.5-13.2-10-13.6-10-.4 0-3.1 9.1-5.9 20.2C308 378.4 280 483.5 279 485.5c-.7 1.7-.9 1.4-.9-1.5-.1-1.9-1.9-27.1-4.1-56-2.2-28.8-4-53.9-4-55.7 0-2.6 1.2-4.6 5.6-9.4 5.6-6.1 5.6-6.2 5.1-11.2-.4-2.8-1.6-7.9-2.8-11.4l-2.1-6.3h-41.5l-2.1 7.2c-3.9 13.6-4.1 12.3 4.2 21.3 7.4 7.9 7.4 8 7 12.5-.3 2.5-2.7 29.4-5.4 59.8-2.6 30.5-5 55.5-5.2 55.8-.2.2-10.7-38.3-23.3-85.6-12.6-47.3-23.1-86-23.4-86-.3.1-4.2 3-8.6 6.6z"/></svg>